<svg style="position: absolute; width: 0; height: 0; overflow: hidden;" version="1.1" xmlns="http://www.w3.org/2000/svg" xmlns:xlink="http://www.w3.org/1999/xlink">
<defs>
<symbol id="icon-plus-sign" viewBox="0 0 32 32">
<title>plus-sign</title>
<path d="M32 14.933h-14.933v-14.933h-2.133v14.933h-14.933v2.133h14.933v14.933h2.133v-14.933h14.933z"></path>
</symbol>
<symbol id="icon-show-in-tree" viewBox="0 0 32 32">
<title>show-in-tree</title>
<path d="M25.438 31.063c0.563 0 0.938-0.375 0.938-0.938s-0.375-0.938-0.938-0.938h-9.438v-5.688h9.438c0.563 0 0.938-0.375 0.938-0.938s-0.375-0.938-0.938-0.938h-9.438v-5.625h9.438c0.563 0 0.938-0.375 0.938-0.938s-0.375-0.938-0.938-0.938h-18.875v-13.188c0-0.563-0.375-0.938-0.938-0.938s-0.938 0.375-0.938 0.938v14.125c0 0.563 0.375 0.938 0.938 0.938h8.5v15.063z"></path>
</symbol>
<symbol id="icon-show-in-ci-server" viewBox="0 0 34 32">
<title>show-in-ci-server</title>
<path d="M32.84 13.663c-0.339-0.339-0.813-0.339-1.152 0l-2.1 2.1c-0.203-6.978-5.894-12.466-13.008-12.466-3.862-0.203-7.452 1.558-9.891 4.675-0.339 0.339-0.339 0.813 0 1.219 0.339 0.136 1.016 0.136 1.22-0.203 2.236-2.575 5.352-4.133 8.672-4.133 6.030 0 11.111 4.81 11.246 10.908l-2.236-1.897c-0.339-0.339-0.881-0.339-1.22 0s-0.339 0.881 0 1.22l3.659 3.252c0.339 0.203 0.474 0.339 0.677 0.339s0.542 0 0.677-0.136l3.455-3.455c0.407-0.542 0.407-1.084 0-1.423zM25.388 23.419c-2.032 2.575-5.352 3.93-8.672 3.93-2.913 0-5.691-1.016-7.927-3.252-2.1-2.1-3.32-4.675-3.523-7.656l2.303 1.897c0.474 0.339 1.016 0.203 1.355-0.136s0.203-0.881-0.136-1.22l-3.659-3.117c-0.339-0.339-0.881-0.203-1.22 0l-3.32 3.794c-0.339 0.339-0.339 0.881 0 1.22 0.203 0.203 0.339 0.203 0.542 0.203s0.542-0.203 0.677-0.407l1.897-2.032c0.203 3.252 1.558 6.233 3.862 8.469 2.439 2.439 5.691 3.794 9.146 3.794 3.862 0 7.452-1.694 10.095-4.675 0.339-0.339 0.136-0.813-0.203-1.22-0.339-0.136-1.016-0.136-1.22 0.407z"></path>
</symbol>
<symbol id="icon-zap" viewBox="0 0 32 32">
<title>zap</title>
<path d="M11.313 32c-0.188 0-0.188 0-0.375 0-0.375-0.188-0.563-0.563-0.563-1.125l3.563-13.938h-7.375c-0.375 0-0.563-0.188-0.75-0.375-0.188-0.375-0.188-0.75-0.188-0.938l7-15.063c0.188-0.375 0.563-0.563 0.938-0.563h9.563c0.375 0 0.563 0.188 0.75 0.375 0.25 0.375 0.25 0.563 0 0.938l-4.313 8.125h5.875c0.375 0 0.75 0.188 0.75 0.563 0.188 0.375 0.188 0.75 0 0.938l-14.125 20.688c-0.188 0.188-0.375 0.375-0.75 0.375zM8.125 15.063h6.938c0.375 0 0.563 0.188 0.75 0.375s0.188 0.563 0.188 0.75l-2.438 10 10.125-14.875h-5.813c-0.375 0-0.563-0.188-0.75-0.375-0.188-0.375-0.188-0.75 0-0.938l4.313-8.125h-7.5z"></path>
</symbol>
<symbol id="icon-refresh" viewBox="0 0 32 32">
<title>refresh</title>
<path d="M32 13c-0.375-0.375-0.875-0.375-1.25 0l-2.313 2.125c-0.375-7.5-6.563-13.375-14.188-13.375-7.875 0-14.25 6.438-14.25 14.25s6.375 14.25 14.25 14.25c4.625 0 9.063-2.313 11.688-6.25 0.375-0.375 0.188-0.875-0.188-1.25-0.313-0.375-0.875-0.188-1.188 0.188-2.313 3.563-6.25 5.5-10.313 5.5-6.938 0-12.5-5.688-12.5-12.438s5.688-12.438 12.5-12.438c6.563 0 11.875 5.125 12.438 11.563l-2.125-2.125c-0.375-0.375-0.938-0.375-1.25 0-0.375 0.313-0.375 0.875 0 1.25l3.688 3.688c0.188 0.188 0.375 0.188 0.75 0.188 0.313 0 0.5 0 0.688-0.188l3.563-3.688c0.375-0.375 0.375-0.938 0-1.25z"></path>
</symbol>
<symbol id="icon-view" viewBox="0 0 32 32">
<title>view</title>
<path d="M16.938 10.563c-3 0-5.438 2.438-5.438 5.438s2.438 5.438 5.438 5.438c3 0 5.438-2.438 5.438-5.438s-2.438-5.438-5.438-5.438zM16.938 19.563c-2.063 0-3.563-1.5-3.563-3.563s1.5-3.563 3.563-3.563c2.063 0 3.563 1.688 3.563 3.563s-1.5 3.563-3.563 3.563zM32.188 15.625c-3.188-5.625-9.063-9.063-15.625-9.063s-12.625 3.25-16.375 8.875c-0.188 0-0.188 0.188-0.188 0.375v0.188c0 0.188 0 0.375 0.188 0.563 3.75 5.438 9.813 8.875 16.375 8.875s12.438-3.438 15.625-8.875c0.188-0.375 0.188-0.75 0-0.938zM16.563 23.5c-5.813 0-11.313-2.813-14.688-7.5 3.375-4.688 8.875-7.5 14.5-7.5 5.813 0 10.938 2.813 13.75 7.688-2.625 4.5-7.75 7.313-13.563 7.313z"></path>
</symbol>
<symbol id="icon-jar" viewBox="0 0 32 32">
<title>jar</title>
<path d="M27.625 11.625l-5.625-3.25v-0.375l1.813-1.813c0.188-0.188 0.188-0.375 0.188-0.813v-4.375c0-0.625-0.375-1-1-1h-14c-0.625 0-1 0.375-1 1v4.375c0 0.438 0 0.625 0.188 0.813l1.813 1.813v0.188l-5.625 3.438c-0.188 0.188-0.375 0.375-0.375 0.75v12.813c0 0.188 0 0.438 0.188 0.438l2 3.75c0 0.438 0.438 0.625 0.813 0.625h18c0.375 0 0.813-0.188 0.813-0.625l2-3.75c0-0.25 0.188-0.438 0.188-0.438v-12.813c0-0.375-0.188-0.563-0.375-0.75zM10 2h12v3l-0.813 1h-10.375l-0.813-1zM24.375 28h-16.75l-1-2h18.75zM26 24h-20v-11l5.625-3.188c0.188-0.188 0.375-0.625 0.375-1v-0.813h8v0.813c0 0.375 0.188 0.563 0.375 0.813l5.625 3.375z"></path>
</symbol>
<symbol id="icon-deploy" viewBox="0 0 32 32">
<title>deploy</title>
<path d="M21.063 30.625h-10.125c-0.688 0-1.188-0.5-1.188-1.313v-13.125h-5.188c-0.5 0-1-0.375-1.188-0.688-0.188-0.5-0.188-1 0.188-1.5l11.438-12.313c0.188-0.313 0.5-0.313 1-0.313 0.313 0 0.688 0.125 1 0.313l11.313 12.313c0.313 0.125 0.5 0.625 0.5 1 0 0.688-0.5 1.313-1.375 1.313h-5.188v13.313c0 0.375-0.188 0.688-0.375 0.875-0.125 0.125-0.5 0.125-0.813 0.125zM12.313 28.125h7.563v-13.125c0-0.688 0.5-1.375 1.375-1.375h3.5l-8.75-9.25-8.563 9.25h3.5c0.688 0 1.375 0.5 1.375 1.375z"></path>
</symbol>
<symbol id="icon-import" viewBox="0 0 32 32">
<title>import</title>
<path d="M31.063 32h-30.125c-0.563 0-0.938-0.375-0.938-0.938v-30.125c0-0.563 0.375-0.938 0.938-0.938h4.688c0.563 0 0.938 0.375 0.938 0.938s-0.375 0.938-0.938 0.938h-3.75v28.25h28.25v-3.75c0-0.563 0.375-0.938 0.938-0.938s0.938 0.375 0.938 0.938v4.688c0 0.563-0.375 0.938-0.938 0.938zM23.125 22.563h-12.75c-0.563 0-0.938-0.375-0.938-0.938v-13.313c0-0.438 0.188-0.813 0.563-1s0.75 0 0.938 0.188l12.75 13.375c0.188 0.188 0.438 0.75 0.188 0.938 0 0.563-0.375 0.75-0.75 0.75zM11.313 20.688h9.563l-9.563-10.125zM17.688 15.25c-0.188 0-0.563 0-0.75-0.188-0.375-0.375-0.375-0.938 0-1.313l13.375-13.375c0.375-0.375 0.938-0.375 1.313 0s0.375 0.938 0 1.313l-13.188 13.188c-0.188 0.188-0.375 0.375-0.75 0.375z"></path>
</symbol>
<symbol id="icon-export" viewBox="0 0 32 32">
<title>export</title>
<path d="M31.063 15.25c-0.188 0-0.563-0.188-0.75-0.188l-13.188-13.375c-0.375-0.375-0.375-0.75-0.188-1.125 0-0.375 0.375-0.563 0.75-0.563h13.375c0.563 0 0.938 0.375 0.938 0.938v13.375c0 0.375-0.188 0.75-0.563 0.938-0.188 0-0.188 0-0.375 0zM19.938 1.875l10.188 10.188v-10.188zM10.375 22c-0.188 0-0.563 0-0.75-0.188-0.188-0.563-0.188-1.125 0.188-1.5l13.313-13.375c0.375-0.375 1-0.375 1.375 0s0.375 0.938 0 1.375l-13.375 13.313c-0.188 0.188-0.563 0.375-0.75 0.375zM31.063 32h-30.125c-0.563 0-0.938-0.375-0.938-0.938v-30.125c0-0.563 0.375-0.938 0.938-0.938h4.688c0.563 0 0.938 0.375 0.938 0.938s-0.375 0.938-0.938 0.938h-3.75v28.25h28.25v-3.75c0-0.563 0.375-0.938 0.938-0.938s0.938 0.375 0.938 0.938v4.688c0 0.563-0.375 0.938-0.938 0.938z"></path>
</symbol>
<symbol id="icon-external-link" viewBox="0 0 32 32">
<title>external-link</title>
<path d="M30.522 0.355h-9.369c-0.817 0-1.478 0.662-1.478 1.478s0.662 1.478 1.478 1.478h5.8l-14.175 14.175c-0.577 0.577-0.577 1.513 0 2.091 0.289 0.289 0.667 0.433 1.045 0.433s0.757-0.144 1.045-0.433l14.175-14.175v5.8c0 0.817 0.662 1.478 1.478 1.478s1.478-0.662 1.478-1.478v-9.369c0-0.817-0.662-1.478-1.478-1.478z"></path>
<path d="M24.474 12.681c-0.817 0-1.478 0.662-1.478 1.478v14.529h-20.039v-20.039h15.404c0.817 0 1.478-0.662 1.478-1.478s-0.662-1.478-1.478-1.478h-16.882c-0.817 0-1.478 0.662-1.478 1.478v22.996c0 0.817 0.662 1.478 1.478 1.478h22.996c0.817 0 1.478-0.662 1.478-1.478v-16.008c0-0.817-0.662-1.478-1.478-1.478z"></path>
</symbol>
<symbol id="icon-pin" viewBox="0 0 32 32">
<title>pin</title>
<path fill="#6c6c6c" style="fill: var(--color1, #6c6c6c)" d="M16.8 8l-5.4 5.4-4 1.6 4.2 4.2-5.6 5.8-0.4 1.4 1.6-0.4 5.6-5.6 4.2 4.2 1.6-4 5.4-5.4 4-1.6-9.6-9.6-1.6 4zM25.4 13l-2.4 1-5.6 5.6-1 2.4-6.4-6.4 2.2-0.8 5.8-5.8 1-2.4 6.4 6.4z"></path>
</symbol>
<symbol id="icon-unpin" viewBox="0 0 32 32">
<title>unpin</title>
<path fill="#b8b8b8" style="fill: var(--color2, #b8b8b8)" d="M16.8 8l-5.4 5.4-4 1.6 4.2 4.2-5.6 5.8-0.4 1.4 1.6-0.4 5.6-5.6 4.2 4.2 1.6-4 5.4-5.4 4-1.6-9.6-9.6-1.6 4zM25.4 13l-2.4 1-5.6 5.6-1 2.4-6.4-6.4 2.2-0.8 5.8-5.8 1-2.4 6.4 6.4z"></path>
<path fill="#b8b8b8" style="fill: var(--color2, #b8b8b8)" d="M8.933 4.775l19.23 19.236-0.99 0.99-19.23-19.236 0.99-0.99z"></path>
</symbol>
<symbol id="icon-revoke-api" viewBox="0 0 32 32">
<title>revoke-api</title>
<path d="M16 0.6c-8.6 0-15.6 7-15.6 15.6s7 15.4 15.6 15.4 15.6-7 15.6-15.4c0-8.6-7-15.6-15.6-15.6zM16 30.2c-7.8 0-14-6.2-14-14 0-3.8 1.6-7.4 4-9.8l6.4 7-6.2 7.4c-0.2 0.2-0.2 0.6-0.2 1v2.2c0 0.8 0.2 2 1.2 2h2.2c0.8 0 1.4-0.8 1.6-1.4l0.2-1 1.8-0.2c0.8 0 1.4-0.6 1.6-1.4v-1.2h1.2c0.6 0 1.2-0.4 1.4-1l0.2-0.8 7.2 8c-2.2 2-5.2 3.2-8.6 3.2zM14.6 13.4c0-0.6-0.2-1-0.2-1.2 0-2.6 2-4.6 4.6-4.6s4.6 2 4.6 4.6-2.2 4.6-4.6 4.6c-0.8 0-1.2-0.2-1.8-0.4v0l-2.4-2.6-0.2-0.4zM16 17.2l-0.6 1.6h-2.8l-0.2 2.8-3 0.2-0.4 2.2h-1v-2l6-7 2 2.2zM26 26l-6.6-7.2c3.6-0.2 6.4-3 6.4-6.6s-3-6.6-6.6-6.6c-3.4 0-6 2.4-6.6 5.6l-5.4-6c2.4-2 5.4-3.2 8.8-3.2 7.8 0 14 6.2 14 14 0 4-1.6 7.6-4 10z"></path>
<path d="M19.4 14.6c1.6 0 2.8-1.2 2.8-2.8s-1.2-2.8-2.8-2.8-2.8 1.2-2.8 2.8 1.4 2.8 2.8 2.8zM19.4 11c0.4 0 0.8 0.4 0.8 0.8s-0.4 0.8-0.8 0.8-0.8-0.4-0.8-0.8 0.4-0.8 0.8-0.8z"></path>
</symbol>
<symbol id="icon-unexpire" viewBox="0 0 34 32">
<title>unexpire</title>
<path d="M5.973 18.347l1.707 0.853 0.853-1.707 1.067 1.92 1.707-1.067-1.493-1.92h2.133l-0.213-2.133-2.347 0.853 0.213-2.347h-1.92l0.213 2.347-2.347-0.64-0.427 1.92h2.133z"></path>
<path d="M29.013 14.293l-2.56 0.853 0.427-2.347h-2.133l0.213 2.347-2.347-0.64-0.213 1.92h2.133l-1.493 1.92 1.92 0.853 0.853-1.707 0.853 1.92 1.707-1.067-1.28-1.92h2.133z"></path>
<path d="M26.88 6.827v0 0c-0.853-0.213-1.493-0.427-2.347-0.427h-14.933c-5.333 0-9.6 4.267-9.6 9.6 0 4.48 2.987 8.107 7.253 9.173v0 0c0.853 0.427 1.493 0.427 2.347 0.427h14.933c5.333 0 9.6-4.267 9.6-9.6 0-4.48-3.2-8.107-7.253-9.173zM2.133 16c0-4.053 3.413-7.467 7.467-7.467h14.933l-6.613 5.333 0.213-1.067h-2.133l0.213 2.347-2.347-0.64-0.213 1.92h1.28l-7.893 6.613c-2.987-1.067-4.907-3.84-4.907-7.040zM24.533 23.467h-14.933l5.76-4.693 0.853 0.427 0.853-1.707 0.853 1.92 1.707-0.853-1.28-2.133 2.133-0.213-0.213-1.493 6.827-5.76c2.987 1.28 4.907 3.84 4.907 7.040 0 4.267-3.413 7.467-7.467 7.467z"></path>
</symbol>
<symbol id="icon-expire" viewBox="0 0 34 32">
<title>expire</title>
<path d="M11.733 14.293l-2.347 0.853 0.213-2.347h-1.92l0.213 2.347-2.347-0.853-0.427 2.133h2.133l-1.28 1.92 1.707 0.853 0.853-1.707 1.067 1.92 1.707-1.067-1.493-1.92h2.133z"></path>
<path d="M20.267 14.293l-2.347 0.853 0.213-2.347h-2.133l0.213 2.347-2.347-0.853-0.213 2.133h2.133l-1.493 1.92 1.92 0.853 0.853-1.707 0.853 1.92 1.92-1.067-1.493-1.92h2.133z"></path>
<path d="M29.013 14.293l-2.56 0.853 0.427-2.347h-2.133l0.213 2.347-2.347-0.853-0.213 2.133h2.133l-1.493 1.92 1.92 0.853 0.853-1.707 0.853 1.92 1.707-1.067-1.28-1.92h2.133z"></path>
<path d="M24.533 6.4h-14.933c-5.333 0-9.6 4.267-9.6 9.6s4.267 9.6 9.6 9.6h14.933c5.333 0 9.6-4.267 9.6-9.6s-4.267-9.6-9.6-9.6zM24.533 23.467h-14.933c-4.053 0-7.467-3.413-7.467-7.467s3.413-7.467 7.467-7.467h14.933c4.053 0 7.467 3.2 7.467 7.467s-3.413 7.467-7.467 7.467z"></path>
</symbol>
<symbol id="icon-unwatch" viewBox="0 0 32 32">
<title>unwatch</title>
<path d="M8.688 29.188c-4.188 0-7.563-3.375-7.563-7.563 0-4.125 3.375-7.5 7.563-7.5 4.125 0 7.5 3.375 7.5 7.5 0 4.188-3.188 7.563-7.5 7.563zM8.688 16c-3.063 0-5.688 2.438-5.688 5.625 0 3.25 2.438 5.688 5.688 5.688 3.188 0 5.625-2.438 5.625-5.688 0-3.188-2.438-5.625-5.625-5.625zM22.563 29.188c-4.125 0-7.5-3.375-7.5-7.563 0-4.125 3.375-7.5 7.5-7.5 4.188 0 7.563 3.375 7.563 7.5 0 4.188-3.375 7.563-7.563 7.563zM22.563 16c-3 0-5.625 2.438-5.625 5.625 0 3.25 2.438 5.688 5.625 5.688 3.25 0 5.688-2.438 5.688-5.688 0-3.188-2.625-5.625-5.688-5.625zM15.063 2.813h1.875v18.813h-1.875zM3.188 20.688l-1.688-0.938 8.688-18.438c0.188-0.375 0.563-0.375 0.938-0.375h10.125c0.375 0 0.75 0 0.938 0.188l7.563 18.063-1.688 0.938-7.375-17.313h-9zM2.438 30.125c-0.188 0-0.563 0-0.75-0.188-0.375-0.375-0.375-0.938 0-1.313l27.313-27.313c0.375-0.375 0.938-0.375 1.313 0s0.375 0.938 0 1.313l-27.313 27.313c-0.188 0.188-0.375 0.188-0.563 0.188z"></path>
</symbol>
<symbol id="icon-watch" viewBox="0 0 32 32">
<title>watch</title>
<path d="M8.688 29.188c-4.188 0-7.563-3.375-7.563-7.563 0-4.125 3.375-7.5 7.563-7.5 4.125 0 7.5 3.375 7.5 7.5 0 4.188-3.375 7.563-7.5 7.563zM8.688 16c-3.063 0-5.688 2.438-5.688 5.625 0 3.25 2.438 5.688 5.688 5.688 3.188 0 5.625-2.438 5.625-5.688 0-3.188-2.438-5.625-5.625-5.625zM22.563 29.188c-4.125 0-7.5-3.375-7.5-7.563 0-4.125 3.375-7.5 7.5-7.5 4.188 0 7.563 3.375 7.563 7.5 0 4.188-3.375 7.563-7.563 7.563zM22.563 16c-3 0-5.625 2.438-5.625 5.625 0 3.25 2.438 5.688 5.625 5.688 3.25 0 5.688-2.438 5.688-5.688 0-3.188-2.625-5.625-5.688-5.625zM15.063 2.813h1.875v18.813h-1.875zM3.188 20.688l-1.688-0.938 8.688-18.438c0.188-0.375 0.563-0.375 0.938-0.375h10.125c0.375 0 0.75 0 0.938 0.188l7.563 18.063-1.688 0.938-7.563-17.313h-8.813z"></path>
</symbol>
<symbol id="icon-docker-tags" viewBox="0 0 32 32">
<title>docker-tags</title>
<path d="M31.125 23.688h-25.375c-0.125 0-0.375-0.125-0.5-0.25l-4-4.25c-1.75-1.75-1.75-4.625 0-6.25l4-4.375c0.125-0.125 0.25-0.25 0.5-0.25h25.375c0.375 0 0.625 0.25 0.625 0.625v14.125c0 0.375-0.375 0.625-0.625 0.625zM6 22.375h24.438v-12.75h-24.438l-3.813 4.063c-0.625 0.625-0.938 1.438-0.938 2.313s0.438 1.688 0.938 2.313zM7.063 19.188c-1.813 0-3.25-1.375-3.25-3.188s1.438-3.188 3.25-3.188c1.75 0 3.188 1.375 3.188 3.188s-1.438 3.188-3.188 3.188zM7.063 14.063c-1.063 0-1.938 0.938-1.938 1.938s0.875 1.938 1.938 1.938c1 0 1.875-0.938 1.875-1.938s-0.875-1.938-1.875-1.938zM26.625 14.75h-12.813c-0.375 0-0.625-0.313-0.625-0.688s0.25-0.625 0.625-0.625h12.813c0.375 0 0.625 0.25 0.625 0.625s-0.375 0.688-0.625 0.688zM26.625 18.563h-12.813c-0.375 0-0.625-0.25-0.625-0.625s0.25-0.688 0.625-0.688h12.813c0.375 0 0.625 0.313 0.625 0.688s-0.375 0.625-0.625 0.625z"></path>
</symbol>
<symbol id="icon-docker-command" viewBox="0 0 32 32">
<title>docker-command</title>
<path d="M1.063 30.063c-0.188 0-0.625 0-0.875-0.188-0.375-0.438-0.375-1.063 0-1.5l12.375-12.375-12.375-12.563c-0.188-0.438-0.188-1.063 0-1.5 0.438-0.438 1.063-0.438 1.5 0l13.25 13.188c0.438 0.438 0.438 1.063 0 1.5l-13 13c-0.25 0.25-0.688 0.438-0.875 0.438zM29.875 30.938h-19.188c-0.688 0-1.063-0.438-1.063-1.063s0.375-1.063 1.063-1.063h19.188c0.625 0 1.063 0.438 1.063 1.063s-0.438 1.063-1.063 1.063z"></path>
</symbol>
<symbol id="icon-docker-created" viewBox="0 0 32 32">
<title>docker-created</title>
<path d="M30.5 4.563h-6.875v-3.813c0-0.438-0.313-0.75-0.75-0.75h-3.063c-0.438 0-0.75 0.313-0.75 0.75v3.813h-6.125v-3.813c0-0.438-0.313-0.75-0.75-0.75h-3.063c-0.438 0-0.75 0.313-0.75 0.75v3.813h-6.875c-0.438 0-0.75 0.313-0.75 0.75v25.938c0 0.438 0.313 0.75 0.75 0.75h29c0.438 0 0.75-0.313 0.75-0.75v-25.938c0-0.438-0.313-0.75-0.75-0.75zM20.563 1.5h1.563v3.063h-1.563zM9.875 1.5h1.563v3.063h-1.563zM2.313 6.125h9.125v1.5c0 0.438 0.313 0.75 0.75 0.75s0.75-0.313 0.75-0.75v-1.5h9.188v1.5c0 0.438 0.25 0.75 0.75 0.75 0.438 0 0.75-0.313 0.75-0.75v-1.5h6.063v4.563h-27.375zM29.688 30.5h-27.375v-18.313h27.375zM5.313 13.688h3.063v3.063h-3.063zM11.438 13.688h3.063v3.063h-3.063zM17.5 13.688h3.063v3.063h-3.063zM5.313 19.813h3.063v3.063h-3.063zM11.438 19.813h3.063v3.063h-3.063zM17.5 19.813h3.063v3.063h-3.063zM5.313 25.875h3.063v3.063h-3.063zM11.438 25.875h3.063v3.063h-3.063zM17.5 25.875h3.063v3.063h-3.063zM23.625 13.688h3.063v3.063h-3.063zM23.625 19.813h3.063v3.063h-3.063zM23.625 25.875h3.063v3.063h-3.063z"></path>
</symbol>
<symbol id="icon-docker-size" viewBox="0 0 32 32">
<title>docker-size</title>
<path d="M32 28.938l-7.25-18.813c0-0.375-0.313-0.875-0.688-0.875h-5c0.813 0 1.313-1.5 1.313-2.688 0-2.375-2-4.063-4.375-4.063s-4.375 1.688-4.375 3.875c0 1.375 0.688 2.875 1.5 2.875h-5.063c-0.5 0-0.813 0.5-0.813 0.875l-7.25 18.688c-0.188 0.313 0 0.313 0.188 0.5 0.125 0.313 0.313 0.188 0.625 0.188h30.375c0.313 0 0.5 0.125 0.625 0 0.188-0.188 0.188-0.188 0.188-0.563zM16 4.375c1.5 0 2.688 1.188 2.688 2.5 0 1.375-1.188 2.563-2.688 2.563s-2.688-1.188-2.688-2.563c0-1.313 1.188-2.5 2.688-2.5zM2 27.813l6.563-16.875h14.875l6.563 16.875z"></path>
</symbol>
<symbol id="icon-docker-digest" viewBox="0 0 32 32">
<title>docker-digest</title>
<path d="M24.813 23.438c0 1.875-0.25 3.688-0.563 5.5-0.188 0.5-0.5 0.75-0.813 0.625-0.438-0.125-0.563-0.438-0.438-0.938 0.438-1.813 0.625-3.625 0.625-5.438 0-4.75-3.188-8.563-7.938-9.313-5-0.938-10.063 2.75-10.813 7.75 0 0.313 0 0.625-0.125 0.938 0 0.438-0.313 0.625-0.625 0.625s-0.625-0.313-0.625-0.813c0.188-2.125 0.75-3.938 2-5.625 2.75-3.5 6.375-5 10.813-4.125 4.438 0.938 7.125 3.813 8.25 8.25 0.125 0.313 0.125 0.625 0.125 1.063s0 0.938 0.125 1.5zM27.25 23.625c0 0.438 0 0.938 0 1.375s-0.25 0.75-0.563 0.75c-0.5 0-0.625-0.313-0.625-0.75 0.125-1.563 0.125-2.875-0.188-4.25-0.875-4.75-4.875-8.563-9.563-9.313-5.188-0.938-10.063 1.688-12.625 6.25-0.313 0.438-0.625 0.625-0.938 0.438-0.313-0.125-0.438-0.438-0.313-0.875 0.75-1.563 1.688-2.75 3.063-3.813 7.438-6.75 19.188-2.938 21.5 6.813 0.125 1.063 0.25 2.313 0.25 3.375zM21 23.438c0.188-3.625-2.125-6.5-5.625-7.125-3.938-0.75-7.75 2.25-8.063 6.25 0 1.188-0.125 2.438-0.438 3.625 0 0 0 0.188 0 0.188-0.188 0.438-0.5 0.625-0.75 0.438-0.313-0.125-0.5-0.438-0.313-0.938 0.313-1.063 0.438-2.125 0.438-3.188 0-0.563 0.125-1.188 0.313-1.813 0.875-3.625 4.438-6.25 8.063-6.125 3.813 0.188 7.188 2.938 7.75 6.75 0.188 1.188 0.188 2.438 0 3.625-0.125 2-0.563 3.813-1.063 5.625 0 0 0 0 0 0.188-0.125 0.438-0.438 0.625-0.75 0.438-0.313-0.125-0.438-0.438-0.438-0.875 0.313-0.938 0.625-1.875 0.75-2.625-0.125-1.375 0-2.875 0.125-4.438zM14 7.438c7.188 0 13.438 4.75 15.25 11.625 0 0.125 0 0.313 0 0.313 0 0.313-0.125 0.563-0.438 0.563s-0.625-0.125-0.75-0.438c-0.188-0.313-0.188-0.625-0.313-0.938-2-5.625-5.938-9.125-11.875-10-4.75-0.313-8.875 1.188-12.188 4.688 0 0-0.188 0.188-0.188 0.188-0.313 0.25-0.75 0.25-0.938 0.125-0.25-0.313-0.25-0.625 0-0.938 1.125-1.188 2.313-2.125 3.563-2.875 2.438-1.5 5.125-2.313 7.875-2.313zM19.813 23.75c-0.125 2.75-0.75 5.5-1.813 8.125-0.188 0.438-0.5 0.563-0.75 0.438-0.313-0.188-0.5-0.438-0.313-0.938 0.75-1.938 1.375-3.938 1.5-6.063 0.125-1.063 0.125-2.125 0-3.063-0.313-2.125-2.438-3.688-4.563-3.5-2.313 0.125-4 2-4 4.25 0 2-0.438 3.813-1.188 5.625-0.313 0.313-0.625 0.5-0.938 0.313-0.313-0.125-0.438-0.438-0.313-0.875 0.813-1.688 1.125-3.375 1.125-5.188 0-2.938 2.438-5.188 5.313-5.375 2.875-0.125 5.5 2 5.813 4.75 0.125 0.438 0.125 1.063 0.125 1.5zM29.563 13.688c0 0.5-0.125 0.625-0.438 0.625-0.188 0-0.5 0-0.625-0.125-0.188 0-0.188-0.313-0.313-0.313-2.875-4.438-7-7-12.313-7.625-4.125-0.438-7.938 0.625-11.313 2.875-0.125 0-0.125 0.188-0.313 0.188-0.313 0.125-0.563 0.125-0.75-0.188-0.313-0.125-0.125-0.563 0-0.75 0.188-0.125 0.188-0.125 0.313-0.313 8.375-5.75 19.938-3.5 25.625 5.188 0 0.188 0.125 0.438 0.125 0.438zM17.25 23.75c-0.188 2.938-0.813 5.5-2 8.125-0.188 0.25-0.313 0.438-0.625 0.438-0.438 0-0.75-0.438-0.625-0.938 0.5-1.063 0.75-2.125 1.063-3.188 0.625-1.688 0.938-3.375 0.938-5 0-1.063-0.75-2-1.813-2s-1.875 0.938-1.875 2c0 2.438-0.563 4.875-1.625 7-0.188 0.313-0.5 0.438-0.938 0.313-0.313-0.188-0.438-0.5-0.313-0.938 0.625-1.375 1.063-2.75 1.375-4.25 0.188-0.75 0.188-1.563 0.188-2.313 0-1.5 1.063-2.875 2.563-3.188 1.375-0.313 2.875 0.438 3.375 2 0.313 0.75 0.313 1.375 0.313 1.938zM15.25 2.438c4.125 0 8.813 1.813 12.813 5.313 0.25 0.313 0.438 0.625 0.25 0.938-0.25 0.438-0.75 0.438-1.063 0.125-1.063-0.75-2.125-1.625-3.188-2.438-3.625-2.25-7.75-3-12-2.563-2 0.125-3.813 0.75-5.688 1.5-0.25 0.188-0.75 0-0.875-0.313-0.188-0.438 0-0.75 0.438-0.875 2.625-1.063 5.313-1.688 9.313-1.688zM14 0c3.5 0 7 0.625 10.25 2.313 0 0 0.125 0 0.125 0.125 0.438 0.125 0.625 0.625 0.438 0.938-0.125 0.313-0.438 0.438-0.875 0.313-1.063-0.5-2.313-0.938-3.375-1.375-3.313-1.25-6.688-1.375-10.063-0.813 0 0-0.125 0-0.125 0-0.5 0-0.75-0.125-0.75-0.438s0.125-0.625 0.563-0.75c0.625-0.188 1.375-0.188 2-0.313 0.625 0 1.25 0 1.813 0zM14.75 23.625c-0.125 2.75-0.75 5.313-1.938 7.75-0.188 0.313-0.5 0.5-0.75 0.313-0.313-0.125-0.5-0.438-0.313-0.938 0.75-1.5 1.188-3 1.5-4.688 0.188-0.938 0.188-2 0.313-2.875 0-0.5 0.313-0.625 0.625-0.813 0.313 0 0.563 0.313 0.563 0.813 0 0.125 0 0.25 0 0.438z"></path>
</symbol>
<symbol id="icon-logout" viewBox="0 0 32 32">
<title>logout</title>
<path d="M24.4 5c-0.4-0.4-1-0.2-1.4 0.2s-0.2 1 0.2 1.4c3 2.2 4.8 5.8 4.8 9.6 0 6.6-5.4 12-12 12s-12-5.4-12-12c0-3.8 1.8-7.4 4.8-9.6 0.4-0.4 0.6-1 0.2-1.4s-1-0.6-1.4-0.2c-3.6 2.6-5.6 6.8-5.6 11.2 0 7.8 6.2 14 14 14s14-6.2 14-14c0-4.4-2-8.6-5.6-11.2z"></path>
<path d="M16 13.8c0.6 0 1-0.4 1-1v-10c0-0.6-0.4-1-1-1s-1 0.4-1 1v10c0 0.6 0.4 1 1 1z"></path>
</symbol>
<symbol id="icon-up-arrow" viewBox="0 0 32 32">
<title>up-arrow</title>
<path d="M30.575 22.95l-14.575-10.931-14.575 10.931-1.425-1.9 16-12 16 12z"></path>
</symbol>
<symbol id="icon-down-arrow" viewBox="0 0 32 32">
<title>down-arrow</title>
<path d="M30.575 9.050l-14.575 10.931-14.575-10.931-1.425 1.9 16 12 16-12z"></path>
</symbol>
<symbol id="icon-addons-arrow-left" viewBox="0 0 19 32">
<title>addons-arrow-left</title>
<path d="M15.348 31.68l2.24-2.24-12.8-12.96 12.8-12.8-2.24-2.24-14.080 14.080c-0.64 0.64-0.64 1.6 0 2.24l14.080 13.92z"></path>
</symbol>
<symbol id="icon-addons-arrow-right" viewBox="0 0 19 32">
<title>addons-arrow-right</title>
<path d="M3.84 31.68l-2.24-2.24 12.8-12.96-12.8-12.8 2.24-2.24 14.080 14.080c0.64 0.64 0.64 1.6 0 2.24l-14.080 13.92z"></path>
</symbol>
<symbol id="icon-search" viewBox="0 0 32 32">
<title>search</title>
<path d="M30.75 30.25l-9.063-9.125c2.313-2.25 3.75-5.313 3.75-8.875 0-6.75-5.5-12.438-12.438-12.438s-12.438 5.5-12.438 12.438c0 6.938 5.5 12.438 12.438 12.438 2.625 0 5.125-0.875 7.25-2.313l9.063 9.063zM2.688 12.25c0-5.875 4.75-10.625 10.625-10.625s10.688 4.75 10.688 10.625c0 5.875-4.813 10.688-10.688 10.688s-10.625-4.813-10.625-10.688z"></path>
</symbol>
<symbol id="icon-untitled50" viewBox="0 0 32 32">
<title>untitled50</title>
<path d="M6.688 30.688h18.625v1.313h-18.625zM16 26.688c-7 0-12.688-6-12.688-13.375 0-7.313 5.688-13.313 12.688-13.313s12.688 6 12.688 13.313c0 7.375-5.688 13.375-12.688 13.375zM16 1.313c-6.25 0-11.313 5.375-11.313 12s5.063 12 11.313 12c6.25 0 11.313-5.375 11.313-12s-5.063-12-11.313-12z"></path>
</symbol>
<symbol id="icon-bintray" viewBox="0 0 32 32">
<title>bintray</title>
<path d="M3.5 29.5h24.813v2.25h-24.813zM21.188 10.563v2.25h3.313l-7.5 7.438v-16l2.375 2.313 1.563-1.563-5.063-5-5 5 1.625 1.563 2.375-2.375v16.063l-7.5-7.438h3.188v-2.25h-7.063v7.125h2.25v-3.438l10.188 10.188 10.125-10.125v3.375h2.25v-7.125z"></path>
</symbol>
<symbol id="icon-tree_filter-icon" viewBox="0 0 64 32">
<title>tree_filter-icon</title>
<path d="M25.081 3.062h-23.658c-0.554 0-0.924-0.37-0.924-0.924s0.37-0.924 0.924-0.924h23.658c0.555 0 0.924 0.37 0.924 0.924s-0.37 0.924-0.924 0.924z"></path>
<path d="M25.081 12.303h-18.483c-0.554 0-0.924-0.37-0.924-0.924s0.37-0.924 0.924-0.924h18.483c0.555 0 0.924 0.37 0.924 0.924s-0.37 0.924-0.924 0.924z"></path>
<path d="M25.081 21.545h-11.829c-0.555 0-0.924-0.37-0.924-0.924s0.37-0.924 0.924-0.924h11.829c0.555 0 0.924 0.37 0.924 0.924s-0.37 0.924-0.924 0.924z"></path>
<path d="M25.081 30.786h-5.915c-0.555 0-0.924-0.37-0.924-0.924s0.37-0.924 0.924-0.924h5.915c0.555 0 0.924 0.37 0.924 0.924s-0.37 0.924-0.924 0.924z"></path>
<path d="M46.152 30.786c-8.132 0-14.786-6.654-14.786-14.786s6.654-14.786 14.786-14.786 14.786 6.654 14.786 14.786-6.654 14.786-14.786 14.786zM46.152 3.062c-7.208 0-12.938 5.73-12.938 12.938s5.73 12.938 12.938 12.938 12.938-5.73 12.938-12.938-5.915-12.938-12.938-12.938z"></path>
<path d="M44.119 22.654c-0.185 0-0.554-0.185-0.739-0.37l-3.881-4.806c-0.37-0.37-0.185-0.924 0.185-1.294s0.924-0.185 1.294 0.185l3.142 3.881 7.578-10.535c0.37-0.37 0.924-0.554 1.294-0.185s0.554 0.924 0.185 1.294l-8.132 11.459c-0.185 0.185-0.554 0.37-0.924 0.37 0.185 0 0.185 0 0 0z"></path>
</symbol>
<symbol id="icon-artifacts-new" viewBox="0 0 32 32">
<title>artifacts-new</title>
<path d="M25.125 25.625l-13.125 5.125v-15l4.5-2v-5.25l8.625-3.875v21zM15.625 9.625v3.5l-3 1.25 3-4.75zM11.125 28.375l-1.625 0.625v-15.125l4.375-7 8.75-4v1.875l-6.75 3.125-4.625 7.5v13zM6.875 27.5v-15.125l4.375-7 8.75-4v1.75l-6.75 3-4.625 7.5v13.25l-1.75 0.625zM23.375 4.375v-2.875l-2.625 1.125v-2.625l-10.125 4.625-4.625 7.5v16.75l2.625-1v2.5l2.5-1v2.625l14.875-5.75v-23l-2.625 1.125z"></path>
</symbol>
<symbol id="icon-menu-search" viewBox="0 0 32 32">
<title>menu-search</title>
<path d="M22.743 4.457c-0.914-1.829-2.4-3.086-4-3.2-0.114 0-0.229 0-0.229 0h-0.571c-3.086 0.229-5.943 4-6.514 8.686-0.571 5.257 1.714 9.829 5.143 10.286s6.743-3.543 7.314-8.686c0.229-2.743-0.114-5.143-1.143-7.086zM13.257 1.257c-4 1.714-5.486 6.629-5.143 10.743 0.343 3.886 2.057 6.743 4.571 7.543h0.457c-2.057-2.057-3.2-5.829-2.743-9.829 0.457-3.771 2.171-6.971 4.457-8.571l-1.6 0.114zM13.486 28.229c0 0.571 0.343 1.143 0.8 1.486l0.229 0.114v-9.257c-0.343-0.229-0.686-0.457-1.029-0.686v8.343zM15.543 30.171c0 0.457 0.457 0.686 0.8 0.571l1.486-0.571c0.457-0.114 0.8-0.571 0.8-1.143v-8.114c-0.571 0.114-1.029 0.229-1.6 0.229-0.229 0-0.457 0-0.571 0-0.343 0-0.571-0.114-0.8-0.229v9.257zM24.914 11.543c-0.457 4.229-2.514 7.657-5.257 9.029v8.571c0 0.914-0.571 1.829-1.486 2.171l-1.486 0.571c-0.229 0.114-0.343 0.114-0.571 0.114-0.343 0-0.686-0.114-0.914-0.343v0l-1.486-1.029c-0.8-0.571-1.371-1.486-1.371-2.4v-7.543c-2.857-0.914-4.914-4.114-5.371-8.571-0.343-4.571 1.257-10.057 5.943-11.886h0.229l4.686-0.229c0.229 0 0.343 0 0.571 0h0.114c0.114 0 0.229 0 0.343 0 1.943 0.229 3.771 1.6 4.8 3.771 1.143 2.286 1.6 5.029 1.257 7.771zM22.286 11.2c-0.229 1.829-0.914 3.543-1.943 4.686-0.914 1.143-2.171 1.714-3.314 1.714-0.114 0-0.343 0-0.457 0-0.343 0-0.457-0.343-0.457-0.571 0-0.343 0.343-0.571 0.571-0.457 1.029 0.114 1.943-0.343 2.857-1.371s1.486-2.514 1.714-4.114c0.343-3.314-1.029-6.171-3.086-6.4-0.343 0-0.457-0.343-0.457-0.571 0-0.343 0.343-0.571 0.571-0.457 2.629 0.343 4.343 3.657 4 7.543z"></path>
</symbol>
<symbol id="icon-builds-new" viewBox="0 0 32 32">
<title>builds-new</title>
<path d="M21.44 10.080c-0.32-0.16-0.64-0.16-1.12-0.16-0.16 0-0.32 0-0.64 0 0.48 1.6 0.64 3.68 0.16 5.6-0.8 3.36-3.040 5.6-5.12 6.72 0.48 0.8 1.12 1.44 2.080 1.76 2.56 0.8 5.76-1.6 7.040-5.44s0.16-7.68-2.4-8.48zM18.56 10.24c-1.76 0.8-3.36 2.72-4.16 5.12-0.64 2.080-0.64 4.16-0.16 5.76 1.76-0.8 3.68-2.88 4.48-5.76 0.48-1.92 0.48-3.68-0.16-5.12zM25.12 18.88c-1.28 3.84-4.16 6.4-7.040 6.4-0.48 0-0.96-0.16-1.44-0.32-3.2-1.12-4.64-5.6-3.2-10.080 1.28-3.84 4.16-6.4 7.040-6.4 0.48 0 0.96 0.16 1.44 0.16 3.2 1.28 4.64 5.76 3.2 10.24zM24.8 4.32l-10.56 2.56-5.76 13.92 5.6 9.76 10.56-3.52 4.96-12.64-4.8-10.080zM19.040 1.28l-9.76 2.4 4.64 1.92 9.44-2.24-4.32-2.080zM2.56 17.76l4.96 2.24 5.44-13.44-5.44-2.24-4.96 13.44zM7.2 27.040l5.12 2.88-4.8-8.48-4.48-1.92 4.16 7.52zM25.6 28l-12.16 4-7.2-4-5.12-9.76 5.76-15.040 12.32-3.2 6.080 2.88h0.16l5.6 11.36-5.44 13.76z"></path>
</symbol>
<symbol id="icon-home-new" viewBox="0 0 32 32">
<title>home-new</title>
<path d="M28.48 11.84l-6.163-7.088c-0.77-0.77-2.157-0.77-2.773 0.308l-5.547 9.245c-0.308 0.462-0.77 0.616-1.387 0.616l-10.785-2.003 0.154-0.462 6.163-9.707c0.308-0.308 0.616-0.616 1.079-0.616 0 0 0 0 0 0l12.172 0.462c0.308 0 0.462 0.154 0.616 0.308l8.32 8.936h-1.849zM27.556 24.474l-13.559 5.084-11.093-4.314v-10.785l9.553 1.695c1.079 0.154 2.157-0.308 2.619-1.079l5.547-9.399c0.154-0.154 0.308-0.154 0.462-0.154s0.308 0 0.308 0.154l6.163 7.088v11.71zM31.099 11.224l-8.166-8.936c-0.462-0.462-0.924-0.77-1.541-0.77l-12.172-0.462c0 0 0 0 0 0-0.925 0-1.695 0.462-2.157 1.233l-6.163 9.707c-0.308 0.308-0.308 0.77-0.154 1.079s0.462 0.616 0.924 0.77v12.326l12.326 4.93 14.791-5.701v-12.172h1.387c0.462 0 0.924-0.308 1.079-0.616 0.308-0.616 0.154-1.079-0.154-1.387z"></path>
<path d="M14.459 29.867h-1.541v-13.867l1.541-0.77z"></path>
</symbol>
<symbol id="icon-admin-new" viewBox="0 0 32 32">
<title>admin-new</title>
<path d="M16 0.425c-0.3-0.15-0.599-0.299-0.899-0.299h-0.3c-0.899-0.15-1.797-0.15-2.845 0.15-4.043 1.348-7.188 6.739-6.889 11.831 0.15 2.696 1.198 4.942 2.696 6.14-2.696 2.396-4.792 5.99-5.99 10.184-0.15 0.749-0.3 0.749-0.3 0.749l0.599 0.15 5.391 1.647 22.763-7.338c0 0-0.299-1.048-0.599-1.348-1.647-3.145-4.044-5.092-6.889-5.691 1.348-2.246 2.097-4.942 1.947-7.488-0.15-3.744-2.097-6.44-4.643-7.188l-4.043-1.498zM23.638 9.261c0.15 2.546-0.749 5.092-2.097 6.889-0.599 0.749-1.198 1.498-1.947 1.947-0.449 0.299-1.048 0.599-1.498 0.749s-1.048 0.15-1.498 0.299c-0.749 0-1.498-0.15-2.097-0.599-1.647-0.899-2.696-2.845-2.845-5.391-0.15-4.193 2.246-8.686 5.691-9.734 3.295-1.048 6.14 1.498 6.29 5.841zM6.565 11.357c-0.15-4.193 2.246-8.686 5.691-9.734 1.498-0.449 2.845-0.3 3.894 0.599 0 0 0.15 0.15 0.15 0.15-3.594 1.797-6.29 6.739-6.14 11.531 0 1.198 0.3 2.396 0.749 3.295-0.15 0-0.3 0-0.449 0-0.3-0.15-0.749-0.15-1.048-0.449-1.647-0.899-2.696-2.845-2.845-5.391zM7.164 29.329l-4.043-1.198c1.348-3.894 3.295-7.039 5.99-9.135 0.749 0.299 1.647 0.449 2.546 0.299 0.15 0 0.3 0 0.449 0 0.3 0.299 0.449 0.599 0.749 0.749-2.396 2.246-4.343 5.541-5.691 9.285zM8.662 29.029c1.348-3.444 3.295-6.29 5.691-8.237 1.048 0.449 2.396 0.449 3.744 0s2.696-1.498 3.744-2.696c2.696 0.15 4.942 1.797 6.589 4.493l-19.768 6.44z"></path>
</symbol>
<symbol id="icon-notif-success" viewBox="0 0 32 32">
<title>notif-success</title>
<path d="M16 32c-8.875 0-16-7.125-16-16s7.125-16 16-16c8.875 0 16 7.125 16 16s-7.125 16-16 16zM16 2.438c-7.438 0-13.563 6.125-13.563 13.563s6.125 13.563 13.563 13.563c7.438 0 13.563-6.125 13.563-13.563s-6.125-13.563-13.563-13.563zM13.813 23.375c-0.375 0-0.75-0.125-1-0.375l-3.938-4.938c-0.438-0.5-0.313-1.313 0.125-1.75 0.5-0.375 1.313-0.313 1.75 0.188l2.938 3.625 7.375-10.438c0.438-0.563 1.188-0.688 1.75-0.313s0.625 1.125 0.313 1.688l-8.375 11.813c-0.125 0.375-0.563 0.5-0.938 0.5z"></path>
</symbol>
<symbol id="icon-v" viewBox="0 0 32 32">
<title>v</title>
<path d="M16 0c-8.875 0-16 7.125-16 16s7.125 16 16 16c8.875 0 16-7.125 16-16s-7.125-16-16-16zM16 30.125c-7.688 0-14.125-6.438-14.125-14.125s6.438-14.125 14.125-14.125c7.688 0 14.125 6.438 14.125 14.125s-6.438 14.125-14.125 14.125zM22 9.25l-8.063 11.438-3.563-4.313c-0.375-0.375-0.938-0.375-1.313-0.188-0.375 0.375-0.375 0.938-0.188 1.313l4.313 5.063c0.188 0.188 0.375 0 0.75 0s0.563 0.188 0.75 0l8.813-12.188c0.375-0.375 0.188-0.938-0.188-1.313s-0.938-0.188-1.313 0.188z"></path>
</symbol>
<symbol id="icon-notification-success" viewBox="0 0 32 32">
<title>notification-success</title>
<path d="M13.312 23.040c-0.128 0-0.384-0.128-0.512-0.256l-3.712-4.352c-0.128-0.256-0.128-0.64 0.128-0.896s0.64-0.256 0.896 0.128l3.2 3.712 8.576-11.904c0.256-0.256 0.64-0.384 0.896-0.128 0.256 0.128 0.384 0.64 0.128 0.896l-8.96 12.544c-0.128 0.256-0.384 0.256-0.64 0.256 0.128 0 0.128 0 0 0z"></path>
<path d="M16 32c-8.832 0-16-7.168-16-16s7.168-16 16-16 16 7.168 16 16c0 8.832-7.168 16-16 16zM16 1.28c-8.064 0-14.72 6.656-14.72 14.72s6.656 14.72 14.72 14.72 14.72-6.656 14.72-14.72-6.656-14.72-14.72-14.72z"></path>
</symbol>
<symbol id="icon-datagrid-v" viewBox="0 0 32 32">
<title>datagrid-v</title>
<path d="M16 0c-8.813 0-16 7.188-16 16s7.188 16 16 16c8.813 0 16-7.188 16-16s-7.188-16-16-16zM24 10l-9.375 13.375c-0.25 0.25-0.438 0.625-0.813 0.625-0.188 0-0.625-0.375-0.813-0.625l-4.625-5.563c-0.188-0.438-0.188-1 0.25-1.438 0.375-0.375 1-0.375 1.375 0.25l3.813 4.563 8.563-12.188c0.438-0.375 1-0.625 1.438-0.188 0.563 0 0.563 0.563 0.188 1.188z"></path>
</symbol>
<symbol id="icon-datagrid-v2" viewBox="0 0 32 32">
<title>datagrid-v2</title>
<path d="M16 0c-8.813 0-16 7.188-16 16s7.188 16 16 16c8.813 0 16-7.188 16-16s-7.188-16-16-16zM24 10l-9.375 13.375c-0.25 0.25-0.438 0.625-0.813 0.625-0.188 0-0.625-0.375-0.813-0.625l-4.625-5.563c-0.188-0.438-0.188-1 0.25-1.438 0.375-0.375 1-0.375 1.375 0.25l3.813 4.563 8.563-12.188c0.438-0.375 1-0.625 1.438-0.188 0.563 0 0.563 0.563 0.188 1.188z"></path>
</symbol>
<symbol id="icon-notif-error" viewBox="0 0 32 32">
<title>notif-error</title>
<path d="M16 0c-8.875 0-16 7.125-16 16s7.125 16 16 16c8.875 0 16-7.125 16-16s-7.125-16-16-16zM16 29.563c-7.438 0-13.563-6.125-13.563-13.563s6.125-13.563 13.563-13.563c7.438 0 13.563 6.125 13.563 13.563s-6.125 13.563-13.563 13.563zM22.625 9.438c-0.5-0.438-1.313-0.438-1.813 0l-4.813 4.813-4.813-4.813c-0.5-0.438-1.313-0.438-1.813 0-0.5 0.5-0.5 1.25 0 1.75l4.813 4.813-4.813 4.813c-0.5 0.5-0.5 1.25 0 1.75 0.25 0.25 0.563 0.313 0.875 0.313s0.688-0.063 0.938-0.313l4.813-4.813 4.813 4.813c0.25 0.25 0.625 0.313 0.938 0.313s0.625-0.063 0.875-0.313c0.5-0.5 0.5-1.25 0-1.75l-4.813-4.813 4.813-4.813c0.438-0.438 0.438-1.25 0-1.75z"></path>
</symbol>
<symbol id="icon-clear" viewBox="0 0 32 32">
<title>clear</title>
<path d="M16 32c-8.875 0-16-7.125-16-16s7.125-16 16-16c8.875 0 16 7.125 16 16s-7.125 16-16 16zM16 1.875c-7.688 0-14.125 6.438-14.125 14.125s6.438 14.125 14.125 14.125c7.688 0 14.125-6.438 14.125-14.125s-6.438-14.125-14.125-14.125zM17.313 16l5.813-5.813c0.375-0.375 0.375-0.938 0-1.313s-0.938-0.375-1.313 0l-5.813 5.813-5.813-6c-0.375-0.375-0.938-0.375-1.313 0s-0.375 0.938 0 1.313l5.813 5.813-5.813 5.813c-0.375 0.375-0.375 0.938 0 1.313 0.188 0.188 0.375 0.188 0.75 0.188s0.563 0 0.75-0.188l5.813-5.813 5.813 5.813c0.188 0.188 0.375 0.188 0.75 0.188s0.563 0 0.75-0.188c0.375-0.375 0.375-0.938 0-1.313z"></path>
</symbol>
<symbol id="icon-notification-error" viewBox="0 0 32 32">
<title>notification-error</title>
<path d="M16 32c-8.832 0-16-7.168-16-16s7.168-16 16-16 16 7.168 16 16c0 8.832-7.168 16-16 16zM16 1.28c-8.064 0-14.72 6.656-14.72 14.72s6.656 14.72 14.72 14.72 14.72-6.656 14.72-14.72-6.656-14.72-14.72-14.72z"></path>
<path d="M22.144 22.656c-0.128 0-0.384 0-0.512-0.128l-12.544-12.672c-0.256-0.256-0.256-0.64 0-0.896s0.64-0.256 0.896 0l12.544 12.544c0.256 0.256 0.256 0.64 0 0.896-0.128 0.256-0.256 0.256-0.384 0.256z"></path>
<path d="M9.472 22.784c-0.128 0-0.384 0-0.512-0.128-0.256-0.256-0.256-0.64 0-0.896l12.8-12.8c0.256-0.256 0.64-0.256 0.896 0s0.256 0.64 0 0.896l-12.8 12.8c-0.128 0-0.256 0.128-0.384 0.128z"></path>
</symbol>
<symbol id="icon-new" viewBox="0 0 32 32">
<title>new</title>
<path d="M16 32c-8.875 0-16-7.125-16-16s7.125-16 16-16c8.875 0 16 7.125 16 16s-7.125 16-16 16zM16 1.875c-7.688 0-14.125 6.438-14.125 14.125s6.438 14.125 14.125 14.125c7.688 0 14.125-6.438 14.125-14.125s-6.438-14.125-14.125-14.125zM16.938 16.938h8.5c0.563 0 0.938-0.375 0.938-0.938s-0.375-0.938-0.938-0.938h-8.5v-9.063c0-0.375-0.375-0.938-0.938-0.938s-0.938 0.563-0.938 0.938v9.063h-8.313c-0.563 0-0.938 0.188-0.938 0.563 0 0.188 0.188 0.563 0.188 0.75 0.188 0.375 0.563 0.563 0.75 0.563h8.313v7.75c0 0.188 0.188 0.563 0.375 0.75s0.375 0.188 0.563 0.188c0.563 0 0.938-0.375 0.938-0.938z"></path>
</symbol>
<symbol id="icon-notif-warning" viewBox="0 0 32 32">
<title>notif-warning</title>
<path d="M16 32c-8.875 0-16-7.125-16-16s7.125-16 16-16c8.875 0 16 7.125 16 16s-7.125 16-16 16zM16 2.438c-7.438 0-13.563 6.125-13.563 13.563s6.125 13.563 13.563 13.563c7.438 0 13.563-6.125 13.563-13.563s-6.125-13.563-13.563-13.563zM15.938 20.125c-0.688 0-1.25-0.625-1.25-1.25v-9.875c0-0.625 0.563-1.188 1.25-1.188 0.625 0 1.188 0.563 1.188 1.188v9.875c0 0.75-0.563 1.25-1.188 1.25zM17.125 23c0 0.625-0.5 1.188-1.188 1.188s-1.25-0.563-1.25-1.188c0-0.688 0.563-1.25 1.25-1.25s1.188 0.563 1.188 1.25z"></path>
</symbol>
<symbol id="icon-notification-warning" viewBox="0 0 32 32">
<title>notification-warning</title>
<path d="M16 31.385c8.492 0 15.385-6.892 15.385-15.385s-6.892-15.385-15.385-15.385-15.385 6.892-15.385 15.385 6.892 15.385 15.385 15.385zM16 1.846c7.754 0 14.154 6.4 14.154 14.154s-6.4 14.154-14.154 14.154-14.154-6.4-14.154-14.154 6.4-14.154 14.154-14.154z"></path>
<path d="M17.354 23.508c0 0.748-0.606 1.354-1.354 1.354s-1.354-0.606-1.354-1.354c0-0.748 0.606-1.354 1.354-1.354s1.354 0.606 1.354 1.354z"></path>
<path d="M15.385 8.492h1.231v9.969h-1.231v-9.969z"></path>
</symbol>
<symbol id="icon-info" viewBox="0 0 32 32">
<title>info</title>
<path d="M16 32c-8.875 0-16-7.125-16-16s7.125-16 16-16c8.875 0 16 7.125 16 16s-7.125 16-16 16zM16 1.875c-7.688 0-14.125 6.438-14.125 14.125s6.438 14.125 14.125 14.125c7.688 0 14.125-6.438 14.125-14.125s-6.438-14.125-14.125-14.125zM16 25.438c-0.563 0-0.938-0.375-0.938-0.938v-11.313c0-0.563 0.375-0.938 0.938-0.938s0.938 0.375 0.938 0.938v11.313c0 0.563-0.375 0.938-0.938 0.938zM17.875 7.313c0 1.063-0.813 1.938-1.875 1.938s-1.875-0.875-1.875-1.938c0-1 0.813-1.875 1.875-1.875s1.875 0.875 1.875 1.875z"></path>
</symbol>
<symbol id="icon-notification-info" viewBox="0 0 32 32">
<title>notification-info</title>
<path d="M16 0.615c-8.492 0-15.385 6.892-15.385 15.385s6.892 15.385 15.385 15.385 15.385-6.892 15.385-15.385-6.892-15.385-15.385-15.385zM16 30.154c-7.754 0-14.154-6.4-14.154-14.154s6.4-14.154 14.154-14.154 14.154 6.4 14.154 14.154-6.4 14.154-14.154 14.154z"></path>
<path d="M17.354 9.723c0 0.748-0.606 1.354-1.354 1.354s-1.354-0.606-1.354-1.354c0-0.748 0.606-1.354 1.354-1.354s1.354 0.606 1.354 1.354z"></path>
<path d="M15.385 14.769h1.231v9.969h-1.231v-9.969z"></path>
</symbol>
<symbol id="icon-go" viewBox="0 0 32 32">
<title>go</title>
<path fill="#464646" style="fill: var(--color3, #464646)" d="M16 32c-8.9 0-16-7.1-16-16s7.1-16 16-16 16 7.1 16 16-7.1 16-16 16zM16 1.9c-7.7 0-14.1 6.4-14.1 14.1s6.4 14.1 14.1 14.1c7.7 0 14.1-6.4 14.1-14.1s-6.4-14.1-14.1-14.1z"></path>
<path fill="#464646" style="fill: var(--color3, #464646)" d="M7 17.2h14.5l-4.4 4.4c-0.5 0.5-0.5 1.2 0 1.7s1.2 0.5 1.7 0l6.4-6.4c0.2-0.2 0.3-0.5 0.3-0.8s-0.1-0.6-0.3-0.8l-6.4-6.4c-0.2-0.2-0.5-0.3-0.8-0.3s-0.6 0.1-0.8 0.3c-0.5 0.5-0.5 1.2 0 1.7l4.4 4.4h-14.5c-0.6 0-1.2 0.5-1.2 1.2 0 0.4 0.5 1 1.1 1z"></path>
</symbol>
<symbol id="icon-go2" viewBox="0 0 32 32">
<title>go2</title>
<path fill="#464646" style="fill: var(--color3, #464646)" d="M16 32c-8.9 0-16-7.1-16-16s7.1-16 16-16 16 7.1 16 16-7.1 16-16 16zM16 1.9c-7.7 0-14.1 6.4-14.1 14.1s6.4 14.1 14.1 14.1c7.7 0 14.1-6.4 14.1-14.1s-6.4-14.1-14.1-14.1z"></path>
<path fill="#464646" style="fill: var(--color3, #464646)" d="M7 17.2h14.5l-4.4 4.4c-0.5 0.5-0.5 1.2 0 1.7s1.2 0.5 1.7 0l6.4-6.4c0.2-0.2 0.3-0.5 0.3-0.8s-0.1-0.6-0.3-0.8l-6.4-6.4c-0.2-0.2-0.5-0.3-0.8-0.3s-0.6 0.1-0.8 0.3c-0.5 0.5-0.5 1.2 0 1.7l4.4 4.4h-14.5c-0.6 0-1.2 0.5-1.2 1.2 0 0.4 0.5 1 1.1 1z"></path>
</symbol>
<symbol id="icon-more" viewBox="0 0 32 32">
<title>more</title>
<path d="M16 32c-8.875 0-16-7.125-16-16s7.125-16 16-16c8.875 0 16 7.125 16 16s-7.125 16-16 16zM16 1.875c-7.688 0-14.125 6.438-14.125 14.125s6.438 14.125 14.125 14.125c7.688 0 14.125-6.438 14.125-14.125s-6.438-14.125-14.125-14.125zM16 20.688c-0.188 0-0.375 0-0.563-0.188l-7.125-6.188c-0.438-0.375-0.438-0.938 0-1.313 0.375-0.375 0.938-0.375 1.313 0l6.375 5.813 6.375-5.813c0.375-0.375 0.938-0.375 1.313 0 0.438 0.375 0.438 0.938 0 1.313l-6.938 6.375c-0.375 0-0.563 0-0.75 0z"></path>
</symbol>
<symbol id="icon-generic" viewBox="0 0 32 32">
<title>generic</title>
<path d="M30 6c0 0 0-0.188 0-0.188 0-3.438-8.813-4.188-14-4.188s-14 0.75-14 4.188c0 0 0 0.188 0 0.188v20.188c0 3.188 8.375 4.438 14 4.438s14-1.25 14-4.438zM16 16.625c3.625 0 10-0.438 12-1.813v4.813c0 0.75-4.813 2.563-12 2.563s-11.625-2-12-2.188v-5.188c3 1.563 8.375 1.813 12 1.813zM4 12.188v-4c2.813 1.438 8.375 1.813 12 1.813s10-0.375 12-1.813v4.438c0 0.75-4.813 2.188-12 2.188s-11.625-0.813-12-2.625zM16 3.625c7.375 0 11.813 1.563 12 2.188-0.188 0.813-4.625 2.188-12 2.188s-11.813-1.625-12-2.188c0.188-0.813 4.625-2.188 12-2.188zM16 28.625c-6.813 0-11.625-1.625-12-2.438v-4.563c3 1.375 8.375 2.375 12 2.375s10-0.625 12-2v4.188c0 0.813-5.188 2.438-12 2.438z"></path>
</symbol>
<symbol id="icon-puppet" viewBox="0 0 32 32">
<title>puppet</title>
<path d="M10.6 0h11.4l-1.6 2v8l10 18h-2.4l-10-18v-8h-4v2z"></path>
<path d="M29.2 32h-25.4l1.4-2h25.4z"></path>
<path d="M20.6 24.8c0 0.663-0.537 1.2-1.2 1.2s-1.2-0.537-1.2-1.2c0-0.663 0.537-1.2 1.2-1.2s1.2 0.537 1.2 1.2z"></path>
<path d="M17.8 19.2c0 0.663-0.537 1.2-1.2 1.2s-1.2-0.537-1.2-1.2c0-0.663 0.537-1.2 1.2-1.2s1.2 0.537 1.2 1.2z"></path>
<path d="M14.2 24.6c0 0.663-0.537 1.2-1.2 1.2s-1.2-0.537-1.2-1.2c0-0.663 0.537-1.2 1.2-1.2s1.2 0.537 1.2 1.2z"></path>
<path d="M15.6 16.2c-0.6 0-1.2 0-1.8 0.2v0.4c0.4-0.2 1-0.2 1.4-0.2 2.6 0 4.4 2 4.4 4.4 0 0.2 0 0.6 0 0.8l1.6 1.2c0-0.4 0.2-0.8 0.2-1 0-2.8-2.6-5.8-5.8-5.8z"></path>
<path d="M10.4 26.4c0.2 0.6 0.6 1 1 1.4l0.4-0.2c-0.4-0.4-0.6-0.8-0.8-1.2-1-2.4 0-4.8 2.4-5.8 0.2-0.2 0.6-0.2 0.8-0.2l0.6-2c-0.6 0.2-0.8 0.4-1.2 0.4-2.8 1.2-4.4 4.8-3.2 7.6z"></path>
<path d="M22.6 25.6c0.4-0.6 0.6-1 0.6-1.6l-0.4-0.2c-0.2 0.4-0.4 1-0.6 1.4-1.4 2.2-4 2.8-6.2 1.4 0-0.2-0.2-0.4-0.4-0.6l-1.8 0.6c0.2 0.2 0.6 0.4 0.8 0.6 2.6 1.8 6.4 1 8-1.6z"></path>
<path d="M1.2 32l-1.2-2 12.4-20h2.2z"></path>
</symbol>
<symbol id="icon-java" viewBox="0 0 32 32">
<title>java</title>
<path d="M15.125 9.75c0.5 0 0.875-0.313 0.875-0.875v-7.125c0-0.5-0.375-0.875-0.875-0.875-0.563 0-0.875 0.375-0.875 0.875v7.125c0 0.563 0.313 0.875 0.875 0.875zM18.688 9.75c0.5 0 0.875-0.313 0.875-0.875v-5.313c0-0.563-0.375-0.875-0.875-0.875-0.563 0-0.938 0.313-0.938 0.875v5.313c0 0.563 0.375 0.875 0.938 0.875zM11.563 9.75c0.5 0 0.875-0.313 0.875-0.875v-3.563c0-0.5-0.375-0.875-0.875-0.875-0.563 0-0.875 0.375-0.875 0.875v3.563c0 0.563 0.313 0.875 0.875 0.875zM27.563 16h-3.188l0.5-2.5c0-0.188 0-0.5-0.188-0.688-0.125-0.188-0.5-0.375-0.688-0.375h-17.75c-0.188 0-0.563 0.188-0.75 0.375s-0.188 0.5-0.188 0.688l3.563 17.813c0 0.313 0.563 0.688 0.875 0.688h10.688c0.375 0 0.688-0.375 0.875-0.688l0.938-4.625h5.313c0.5 0 0.875-0.375 0.875-0.938v-8.875c0-0.5-0.375-0.875-0.875-0.875zM19.75 30.25h-9.25l-3.188-16h15.625zM26.688 24.875h-4.125l1.438-7.125h2.688z"></path>
</symbol>
<symbol id="icon-scala" viewBox="0 0 32 32">
<title>scala</title>
<path d="M28 2l-24 5.188v4.813h16.188l-16.188 4v6h16.188l-16.188 2.813v5.188l24-5.188v-4.813h-16.188l16.188-4v-6h-16.188l16.188-2.813z"></path>
</symbol>
<symbol id="icon-c-1" viewBox="0 0 32 32">
<title>c-1</title>
<path d="M24 16h-2v-2h-2v2h-2v2h2v2h2v-2h2zM32 16h-2v-2h-2v2h-2v2h2v2h2v-2h2zM19.188 25.813c-1.813 1.188-3.813 2-6 2-6 0-10.813-4.813-10.813-10.813s4.813-10.813 10.813-10.813c2.188 0 4.188 0.625 6 1.813l1.625-1.625c-2.188-1.563-4.813-2.375-7.625-2.375-7.188 0-13.188 5.813-13.188 13s6 13 13.188 13c2.813 0 5.438-1 7.625-2.625z"></path>
</symbol>
<symbol id="icon-c" viewBox="0 0 32 32">
<title>c</title>
<path d="M19.188 25.813c-1.813 1.188-3.813 2-6 2-6 0-10.813-4.813-10.813-10.813s4.813-10.813 10.813-10.813c2.188 0 4.188 0.625 6 1.813l1.625-1.625c-2.188-1.563-4.813-2.375-7.625-2.375-7.188 0-13.188 5.813-13.188 13s6 13 13.188 13c2.813 0 5.438-1 7.625-2.625z"></path>
</symbol>
<symbol id="icon-c-2" viewBox="0 0 32 32">
<title>c-2</title>
<path d="M28 16v-2h-3.375l0.563-3.813-2-0.188-0.563 4h-1.438l0.625-3.813-2-0.188-0.625 4h-3.188v2h2.813l-0.188 2h-2.625v2h2.375l-0.563 3.813 2 0.188 0.563-4.188h1.438l-0.625 3.813 2 0.188 0.625-4.188h4.188v-1.625h-4l0.188-2zM22 18h-1.375l0.188-2h1.375zM13.188 27.813c-6 0-10.813-4.813-10.813-10.813s4.813-10.813 10.813-10.813c2.188 0 4.188 0.625 6 1.813l1.625-1.625c-2.188-1.563-4.813-2.375-7.625-2.375-7.188 0-13.188 5.813-13.188 13s6 13 13.188 13c2.813 0 5.438-1 7.625-2.625l-1.625-1.563c-1.813 1.188-3.813 2-6 2z"></path>
</symbol>
<symbol id="icon-blackduck" viewBox="0 0 32 32">
<title>blackduck</title>
<path d="M29.188 6.188c-1.813-2.375-3.813-3.813-5.188-4.563-0.813-0.438-1.375-0.625-1.813-0.813-0.375-0.188-0.563-0.188-0.563-0.188s0.188 0.188 0.563 0.375c0.438 0.188 0.813 0.813 1.438 1.188 1.188 1.188 2.563 2.813 3.75 5.188 0.438 1.25 0.625 2.625 1 4 0.25 1.438 0.25 3 0 4.438-0.188 1.563-0.563 3-1.375 4.563-0.375 0.813-0.625 1.438-1.188 2-0.188 0.438-0.438 0.625-0.625 0.813s-0.375 0.438-0.375 0.438c-0.188 0.188-0.188 0.188-0.438 0.375-1.188 1-2.375 1.813-3.75 2.188-1.438 0.438-2.813 0.438-4.438 0.188-1.375-0.375-3-0.75-4-1.563s-2-1.813-2.563-2.813c-1.438-2.188-2-4.375-2.25-6-0.375-1.375-0.563-2.375-0.563-2.375s-0.188 1-0.438 2.563c-0.188 1.625-0.188 4.188 1 7 0.625 1.438 1.438 3 2.813 4.188 1.438 1.25 3 2 5 2.625 1.813 0.625 4.188 0.813 6.188 0.188 2.25-0.563 4-1.563 5.625-3 0.188-0.188 0.375-0.375 0.625-0.563 0.188-0.25 0.375-0.438 0.563-0.625 0.438-0.375 0.813-1 1-1.375 0.625-1 1-1.813 1.438-2.813 1-1.813 1.188-3.813 1.375-5.625 0.188-4-1-7.563-2.813-10zM8.625 28.188c-1.25-1-2.625-2.813-3.813-5-1-2.375-1.625-5.188-1.188-8.188 0.188-1.625 0.75-3 1.375-4.375 0.375-0.813 0.813-1.438 1.188-2 0.438-0.625 0.813-1.25 1.438-1.625 1.188-1 2.375-1.813 3.75-2 1.438-0.375 2.813-0.375 4.25 0 1.375 0.188 3 0.813 4 1.625 1 0.563 2 1.563 2.563 2.563 1.438 2 2 4.188 2.438 5.813 0.375 1.625 0.375 2.375 0.375 2.375s0.188-0.75 0.375-2.563c0-1.625 0.25-4-1-6.813-0.563-1.375-1.563-2.813-3-4-1.375-1.188-3-2-5-2.625-1.75-0.563-4-0.75-6.188-0.188-2 0.438-4 1.438-5.563 2.813-0.438 0.375-1.25 1.188-1.813 2.188-0.625 0.813-1.188 1.813-1.625 2.813-0.563 1.813-1 3.813-1.188 5.625-0.188 3.75 1 7.375 2.813 9.75 1.813 2.438 3.813 3.813 5.375 4.438 0.813 0.375 1.438 0.563 1.813 0.813 0.375 0.188 0.625 0.188 0.625 0.188s-0.25-0.188-0.625-0.438c-0.375-0.188-0.813-0.563-1.375-1.188z"></path>
</symbol>
<symbol id="icon-vcs" viewBox="0 0 32 32">
<title>vcs</title>
<path d="M24.625 2.625l-6.438 6.375c0.188 0.375 0.438 1 0.438 1.375 0 1-0.625 2-1.625 2.438v10.188c1 0.375 1.625 1.375 1.625 2.375 0 1.438-1.25 2.625-2.625 2.625s-2.625-1.188-2.625-2.625c0-1 0.625-2 1.625-2.375v-10.188c-0.188 0-0.188-0.188-0.375-0.188l-3.25 3.375c0 0.188 0.25 0.625 0.25 0.813 0 1.375-1.25 2.563-2.625 2.563s-2.813-1.188-2.813-2.563c0-1.438 1.188-2.625 2.625-2.625 0.375 0 0.813 0.188 1.188 0.438l3.375-3.438c0-0.188 0-0.375 0-0.563 0-1.438 1.25-2.625 2.625-2.625 0.188 0 0.375 0 0.625 0l6.375-6.375c-2.188-1-4.375-1.625-7-1.625-8.813 0-16 7.188-16 16s7.188 16 16 16c8.813 0 16-7.188 16-16 0-5.625-3-10.625-7.375-13.375z"></path>
</symbol>
<symbol id="icon-puppet2" viewBox="0 0 32 32">
<title>puppet2</title>
<path d="M28 22v-12h-10.6l-1.4-1.2v-8.8h-10v10h8.4l1.6 1.6v8.8l-1.4 1.6h-8.6v10h10v-8.8l1.4-1.2h10.6zM8 2h6v6h-6v-6zM14 30h-6v-6h6v6z"></path>
</symbol>
<symbol id="icon-docker" viewBox="0 0 32 32">
<title>docker</title>
<path d="M27.188 7.625l-1.813 0.563c0 0.625-0.375 3-1.188 5.813h-2.188v-4h-2v-8h-8v4h-4v4h-4v4h-2.625l-1 1c0 0.188-0.188 6.813 3.813 10.813 2 2.188 4.813 3.188 8.438 3.188 7.188 0 11.188-7.813 13-13h5.75l0.813-1.625zM14 4h4v2h-4zM10 8h8v2h-8zM6 12h14v2h-14zM12.625 27c-2.813 0-5.25-0.813-6.813-2.625-2.813-2.563-3.188-6.563-3.438-8.375h21c-1.563 4.625-5 11-10.75 11zM26.188 14c0.438-1.188 0.625-2.188 0.813-3.188l2.375 3.188zM10.188 19.188c0 1.125-0.875 2-2 2-1.063 0-2-0.875-2-2 0-1.063 0.938-2 2-2 1.125 0 2 0.938 2 2z"></path>
</symbol>
<symbol id="icon-gradle" viewBox="0 0 32 32">
<title>gradle</title>
<path d="M22 16c0 3.313-2.688 6-6 6s-6-2.688-6-6c0-3.313 2.688-6 6-6s6 2.688 6 6zM21.625 6l4.375 8h4c-1.188-6.813-7-12-14-12-2 0-3.813 0.375-5.625 1.188l2 2.813zM21.625 26h-11l-5.625-10 4.188-7.625-2.188-3.188c-3 2.625-5 6.438-5 10.813 0 7.813 6.188 14 14 14 7 0 12.813-5.188 13.813-12h-4z"></path>
</symbol>
<symbol id="icon-chef" viewBox="0 0 32 32">
<title>chef</title>
<path fill="#666" style="fill: var(--color4, #666)" d="M16 7c-5 0-9 4-9 9s4 9 9 9c4.4 0 8-3.2 8.8-7.4h-2.8c-0.6 2.8-3.2 4.8-6 4.8-3.4 0-6.2-2.8-6.2-6.2s2.8-6.4 6.2-6.4c3 0 5.4 2 6 4.8h2.8c-0.6-4.4-4.4-7.6-8.8-7.6z"></path>
<path fill="#666" style="fill: var(--color4, #666)" d="M5.6 23.2c-1.4-2-2.2-4.6-2.2-7.2 0-0.6 0-1.4 0.2-2l-2.8-0.8c-0.2 1-0.4 1.8-0.4 2.8 0 3.2 1 6.2 2.8 8.8v0l2.4-1.6z"></path>
<path fill="#666" style="fill: var(--color4, #666)" d="M31.6 14.2c-0.4-2.2-1-4.2-2.2-6.2l-2.6 1.4c0.8 1.4 1.4 3 1.6 4.8h3.2z"></path>
<path fill="#666" style="fill: var(--color4, #666)" d="M19 14.6h2.6c-0.4-1.8-1.8-3.2-3.4-4l-0.8 2.4c0.6 0.2 1.2 0.8 1.6 1.6z"></path>
<path fill="#666" style="fill: var(--color4, #666)" d="M16 3.8c-4.6 0-8.6 2.6-10.6 6.2l2.4 1.2c1.6-2.6 4.8-4.6 8.2-4.6 0.2 0 0.4 0 0.6 0v-2.8c-0.2 0-0.4 0-0.6 0z"></path>
<path fill="#666" style="fill: var(--color4, #666)" d="M13.4 18.2l-1.8 1.6c1 1.2 2.4 1.8 4 2v-2.6c-0.8 0-1.6-0.4-2.2-1z"></path>
<path fill="#666" style="fill: var(--color4, #666)" d="M25.2 17.6c-0.8 4.4-4.6 7.8-9.2 7.8-0.2 0-0.4 0-0.6 0v2.8c0.2 0 0.4 0 0.6 0 6.2 0 11.2-4.6 12-10.6h-2.8z"></path>
<path fill="#a0a0a0" opacity="0.5" style="fill: var(--color5, #a0a0a0)" d="M28.6 17.8c-0.8 6.2-6.2 11-12.6 11-3 0-5.6-1-7.8-2.6l-1.8 2.2c2.6 2 6 3.2 9.6 3.2 8 0 14.6-6 15.4-13.8h-2.8z"></path>
<path fill="#a0a0a0" opacity="0.5" style="fill: var(--color5, #a0a0a0)" d="M16 3.4c3.2 0 6.2 1.2 8.4 3.2l1.8-2.2c-2.6-2.6-6.2-4-10.2-4-5.8 0-11 3.2-13.6 8.2l2.6 1.4c2.2-4 6.2-6.6 11-6.6z"></path>
<path fill="#a0a0a0" opacity="0.5" style="fill: var(--color5, #a0a0a0)" d="M20.8 4.8l-1 2.6c2.8 1.2 5 3.8 5.4 7h2.8c-0.4-4.4-3.2-8-7.2-9.6z"></path>
<path fill="#a0a0a0" opacity="0.5" style="fill: var(--color5, #a0a0a0)" d="M21.8 17.4h-2.8c-0.4 1-1.2 1.6-2.4 1.8l0.8 2.4c2.2-0.6 3.8-2.2 4.4-4.2z"></path>
<path fill="#a0a0a0" opacity="0.5" style="fill: var(--color5, #a0a0a0)" d="M12.6 16c0-1.8 1.6-3.4 3.4-3.4 0.2 0 0.2 0 0.4 0v-2.6c-0.2 0-0.4 0-0.4 0-3.2 0.2-5.8 2.8-5.8 6 0 0.8 0.2 1.4 0.4 2l2.4-1c-0.2-0.2-0.4-0.6-0.4-1z"></path>
<path fill="#a0a0a0" opacity="0.5" style="fill: var(--color5, #a0a0a0)" d="M6.6 16c0-0.4 0-0.8 0-1.2l-2.6-0.8c0 0.8-0.2 1.4-0.2 2 0 4.8 3 9.2 7 11l1.2-2.6c-3.2-1.4-5.4-4.6-5.4-8.4z"></path>
</symbol>
<symbol id="icon-opkg" viewBox="0 0 30 32">
<title>opkg</title>
<path fill="#464646" style="fill: var(--color3, #464646)" d="M17.858 18.549c0 1.424-1.154 2.579-2.579 2.579s-2.579-1.154-2.579-2.579c0-1.424 1.154-2.579 2.579-2.579s2.579 1.154 2.579 2.579z"></path>
<path fill="#464646" style="fill: var(--color3, #464646)" d="M25.733 17.353c1.765 0 3.194-1.429 3.194-3.194s-1.429-3.194-3.194-3.194c-1.765 0-3.194 1.429-3.194 3.194 0 0.128 0.012 0.244 0.023 0.372l-3.008 1.254c-0.29-0.465-0.662-0.883-1.080-1.22l2.788-7.805c0.279 0.081 0.581 0.128 0.883 0.128 1.765 0 3.194-1.429 3.194-3.194s-1.429-3.194-3.194-3.194c-1.765 0-3.194 1.429-3.194 3.194 0 0.929 0.395 1.765 1.034 2.346l-2.776 7.77c-0.604-0.244-1.254-0.383-1.951-0.383-0.372 0-0.732 0.046-1.080 0.116l-2.671-4.658c0.639-0.581 1.045-1.417 1.045-2.358 0-1.765-1.429-3.194-3.194-3.194s-3.194 1.429-3.194 3.194c0 1.765 1.429 3.194 3.194 3.194 0.314 0 0.604-0.046 0.894-0.128l2.567 4.449c-1.568 0.871-2.637 2.532-2.637 4.46 0 0 0 0 0 0.012l-3.682 0.987c-0.534-1.022-1.603-1.719-2.834-1.719-1.765 0-3.194 1.429-3.194 3.194s1.429 3.194 3.194 3.194 3.194-1.429 3.194-3.194c0-0.023 0-0.046 0-0.070l3.531-0.941c0.627 2.102 2.567 3.635 4.878 3.635 0.987 0 1.916-0.29 2.695-0.778l2.497 3.438c-0.465 0.558-0.755 1.278-0.755 2.056 0 1.765 1.429 3.194 3.194 3.194s3.194-1.429 3.194-3.194-1.429-3.194-3.194-3.194c-0.453 0-0.894 0.093-1.289 0.267l-2.555-3.508c0.801-0.894 1.289-2.079 1.289-3.368 0-0.488-0.070-0.952-0.197-1.405l2.904-1.208c0.569 0.871 1.556 1.452 2.683 1.452zM15.28 22.127c-1.975 0-3.577-1.603-3.577-3.577s1.603-3.577 3.577-3.577c1.975 0 3.577 1.603 3.577 3.577s-1.614 3.577-3.577 3.577z"></path>
</symbol>
<symbol id="icon-vagrant" viewBox="0 0 32 32">
<title>vagrant</title>
<path d="M30.375 3.188l-3-1.375c-0.188-0.188-0.563-0.188-0.75 0l-7 3.563c-0.438 0.25-0.625 0.625-0.625 0.813v2l-1.813 5.625-2.188-5.625v-2c0-0.188-0.188-0.563-0.375-0.813l-7.25-4.188c0 0 0 0-0.188 0-0.188-0.188-0.563 0-0.813 0l-4 1.813c0 0-0.188 0.188-0.375 0.625l-0.375 2c0 0.188 0 0.375 0 0.563l9.563 22.188c0 0.25 0.188 0.438 0.438 0.438l5.375 2.813c0.188 0 0.375 0.188 0.375 0.188 0.25 0 0.438 0 0.438-0.188l1-0.625 3.375-2.188c0.188-0.188 0.188-0.188 0.438-0.438l8.188-22c0.188-0.188 0.188-0.375 0.188-0.375v-1.813c0-0.375-0.188-0.813-0.625-1zM13 27.188l-9.375-21.563 0.188-1.25 2.563-1.188 10.625 26zM17.375 24.813l-8.375-20.438 4 2.438v1.563c0 0.25 0 0.438 0 0.438l3.375 8.188c0.25 0.625 0.625 1 1 1 0.438 0 0.813-0.375 1-0.813l2.625-8.375c0 0 0-0.188 0-0.438v-1.375l4-2.188zM29 5.813l-8 21.563-2 1.438-0.375-1.188 8.75-23.625 1.625 0.813z"></path>
</symbol>
<symbol id="icon-pypi" viewBox="0 0 32 32">
<title>pypi</title>
<path d="M19 16c1.625 0 3-1.375 3-3 0-2.625 0-5.375 0-8 0-1.625-1.375-3-3-3-3 0-6 0-9 0-3.813 0-3.813 6 0 6 2 0 4 0 6 0 0 0.625 0 1.375 0 2-4.375 0-8.625 0-13 0-1.625 0-3 1.375-3 3 0 2.375 0 4.625 0 7 0 3.813 6 3.813 6 0 0-1.375 0-2.625 0-4 4.375 0 8.625 0 13 0zM24 12c0 2 0 4 0 6-4.375 0-8.625 0-13 0-1.625 0-3 1.375-3 3 0 2.625 0 5.375 0 8 0 1.625 1.375 3 3 3 3 0 6 0 9 0 3.813 0 3.813-6 0-6-2 0-4 0-6 0 0-0.625 0-1.375 0-2 4.375 0 8.625 0 13 0 1.625 0 3-1.375 3-3 0-3 0-6 0-9 0-3.813-6-3.813-6 0z"></path>
</symbol>
<symbol id="icon-ivy" viewBox="0 0 32 32">
<title>ivy</title>
<path d="M1 8.813v-2.813h3v2.813zM1 21.375v-11h3v11zM11 21.375l-4.375-11h3l2 5.625 0.563 1.813c0.188-0.438 0.188-0.813 0.438-1 0-0.438 0.188-0.625 0.375-1l2.188-5.625h3l-4.375 11h-2.813zM19.625 10.375h3.188l2.563 7.813 2.625-7.813h3l-4 10.625-0.625 2c-0.188 0.625-0.563 1.188-0.75 1.375-0.25 0.438-0.625 0.625-0.813 0.813-0.438 0.188-0.625 0.438-1.188 0.438-0.438 0.188-1 0.188-1.625 0.188s-1.188 0-1.625-0.188l-0.188-2.25c0.438 0 0.813 0.25 1.188 0.25 0.625 0 1.25-0.25 1.625-0.625s0.625-1 0.813-1.625z"></path>
</symbol>
<symbol id="icon-bower" viewBox="0 0 32 32">
<title>bower</title>
<path d="M30.625 15.188c-0.625-0.188-1-0.375-1.625-0.563-2.813-0.813-5.813-1.25-8.625-1.625-0.375 0-1-0.188-1.375-0.188 0.188-1 0.625-1.188 1.375-1.188 0 0.188 0.25 0.375 0.25 0.563s0.188 0.188 0.375 0.188 0.813 0 1.188 0c2-0.188 3.188-1.188 4-3.188 0.188-0.563 0.438-1.188 0.438-1.813 0.188-1.375 0.75-2.563 1.563-3.563 0 0 0.188-0.188 0.188-0.438-2.188-0.75-6.188 0.813-7.75 4.25-0.438 0-0.813-0.25-1-0.25-0.25 0-0.438-0.188-0.438-0.375-1-3.188-3.563-5.188-6.813-5-3.563 0-6.563 1.375-9 4-2.375 2.813-3.375 6-3.375 9.625 0.188 3.188 1.188 6.188 3 9 0.813 1.188 1.813 2.188 3 3 1.188 0.75 2.375 0.563 3.375-0.438 0.25-0.188 0.438-0.375 0.625-0.813 0 0.25 0 0.25 0.188 0.438 0.188 0.813 0.625 1.375 0.813 2.188 0.375 0.813 1.375 1.188 2 0.813 0.188-0.188 0.375 0 0.375 0 0.625 0.188 1.438 0.375 2 0 0.625-0.438 1-0.438 1.625-0.625 0.813-0.188 1.625-0.563 1.813-1.375 0 0 0-0.188 0.188-0.188 0.375-0.25 0.625-0.438 0.813-0.813 0.188-0.625 0.188-1 0-1.438-0.438-1-1-1.75-1.438-2.563 0 0 0-0.188-0.188-0.188 0.625 0.188 1 0.375 1.625 0.375 0.813 0 1.563 0.188 2-0.625 0.188 0 0.188 0.25 0.188 0.25 1.375 0.75 3 0.563 4-0.625 0.188 0 0.188 0 0.375 0 0.813 0.188 1.625 0 2.438-0.375 0.375-0.25 0.813-0.438 0.813-1 0-0.25 0-0.438 0-0.625 1.563-0.188 2.375-1 2.375-2.375 0.188-1.25-0.188-2-1.375-2.438zM21.375 11.375c-0.188-0.375-0.375-0.75-0.375-1 0-0.188 0-0.188 0.188-0.188s0.625 0 0.625 0c0 0.188 0 0.438 0 0.625 0 0 0.188 0 0.188 0 0.188-0.438 0.188-0.438 0.813-0.438 0.375 0 0.813 0.25 1 0.438-0.625 0.375-1.438 0.563-2.438 0.563zM26.813 4.188c-1 1-1 2.438-1.438 3.813-0.188 0.813-0.375 1.625-0.75 2.188-0.625-0.375-1-1-1.625-1.375 0.375-0.813 0.625-1.438 1-2 0.375-0.625 0.813-1.188 1.375-1.813-1.375 0.813-2.188 2-3 3.188-0.375-0.188-0.563-0.375-1-0.563 0.625-1.438 3.625-3.625 5.438-3.438zM17.375 12c0-2 0.25-2 0.438-2.625 0-0.188 0.188-0.75 0.188-1 0 0 0.188-0.375 0.375-0.375 1.625 0.188 2.813 0.625 4 1.375 0.25 0.25 0.625 0.438 0.813 0.625-0.375 0-0.813-0.188-1.188-0.375-0.813-0.25-1.813-0.25-2.625 0.188-0.188 0-0.375 0.188-0.563 0.188s-0.438 0-0.438 0c0 0 0.25 0 0.25 0-0.25 0.375-0.625 0.375-0.625 0.188h-0.375c0 0-0.25 0-0.25 0 0.625 0.625 1 0.438 1.625 0.438 0.375 0 0.813-0.25 1.188-0.25 0 0-0.188 0.25-0.188 0.25-0.813 0.375-1.375 0.75-2.188 1 0 0 0 0-0.188 0 0-0.25-0.25-0.25-0.25-0.438s0 0.438 0 0c0 0 0 0.813 0 0.813zM12.375 6.375c1.625 0 2.813 1.25 2.813 2.813 0 1.438-1.188 2.813-2.813 2.813-1.563 0-2.75-1.375-2.75-3 0-1.375 1.188-2.625 2.75-2.625zM20 16c0.375 0 0.625 0.188 1 0.188s0.813 0.188 1 0.188c1 0.25 1.813 0.438 2.813 0.625 0.375 0 0.375 0.188 0.188 0.625-0.375 0.563-1 0.75-1.813 0.563 0 0-0.188 0-0.188 0 0 1-0.813 1.625-2 1.625-0.375 0-0.813-0.188-1.188-0.188-0.188 0.563-0.813 0.75-1.188 0.75-0.625 0-1.25 0-1.813-0.375 0.188 0.625 0.375 1 0.563 1.375 0 0.25 0 0.438 0 0.438-0.375 2.375-2.188 4.188-4.563 4.375-2.625 0.188-4.813-0.563-7-2.188-1.438-1-2.625-2.375-3.438-4.188 0 0 0-0.188-0.188-0.188 0.625 0.188 1.188 0.375 1.813 0.375 1 0.188 2 0.188 3-0.375 0.813 0 1 0 1.375 0 3.438 0.75 5.813-0.438 7.813-3 0.188-0.25 0.438-0.438 0.438-0.625 0.375-0.625 0.75-1.188 1.375-1.813 0 0 0.188-0.188 0.375-0.188 1.25 0.188 2.438 0.188 3.438 0.375 2 0.438 3.813 0.813 5.813 1 0 0 0.188 0 0.188 0.25-2.625 0.375-5.188 0.75-7.813 0.375zM12.375 10.813c1 0 1.625-0.625 1.625-1.625s-0.813-1.813-1.625-1.813c-1 0-1.75 0.813-1.75 1.625 0 1 0.75 1.813 1.75 1.813zM11.625 8c0.188-0.188 0.375-0.188 0.75-0.188 0.25 0 0.625 0.188 0.813 0.188 0.438 0.188 0.438 0.625 0 0.813-0.375 0.188-1.188 0.188-1.563 0-0.25-0.188-0.25-0.625 0-0.813z"></path>
</symbol>
<symbol id="icon-cocoapods" viewBox="0 0 32 32">
<title>cocoapods</title>
<path d="M21.698 19.117c-0.805 4.439-4.604 8.052-10.467 8.052-6.999 0-11.231-5.161-11.231-11.025 0-5.739 4.026-11.025 11.169-11.025 6.132 0 9.951 3.861 10.508 8.692h-5.058c-0.434-2.457-2.312-4.315-5.388-4.315-4.026 0-6.297 3.179-6.297 6.648 0 3.675 2.539 6.648 6.359 6.648 2.808 0 4.666-1.61 5.265-3.675h5.141z"></path>
<path d="M27.561 5.615l-3.097 1.321 3.861 9.063-3.861 9.063 3.097 1.321 2.601-6.111 0.021 0.021 1.817-4.294-4.439-10.385z"></path>
</symbol>
<symbol id="icon-composer" viewBox="0 0 32 32">
<title>composer</title>
<path d="M7.978 10.691c0.849 0 1.486 0.212 1.911 0.849s0.637 1.486 0.637 2.548c0 1.062-0.212 2.123-0.637 2.973s-0.849 1.699-1.486 2.336-1.274 0.849-2.123 0.849c-0.425 0-0.849 0-1.274-0.212s-0.637-0.637-0.849-1.062v0c0 0.849-0.212 1.699-0.425 2.548l-0.637 2.761h-2.336l2.76-13.378h1.911l-0.212 1.274c0.849-1.062 1.699-1.486 2.761-1.486zM6.916 12.602c-0.425 0-0.637 0.212-1.062 0.637s-0.637 0.849-0.849 1.486-0.212 1.274-0.212 2.123c0 0.425 0 0.849 0.212 1.062s0.425 0.212 0.849 0.212c0.425 0 0.637 0 1.062-0.425s0.637-1.062 0.849-1.699 0.212-1.274 0.212-1.911c0-1.062-0.212-1.486-1.062-1.486z"></path>
<path d="M19.445 20.035h-2.548l1.062-5.521c0-0.425 0.212-0.637 0.212-1.062 0-0.637-0.212-1.062-0.849-1.062-0.425 0-1.062 0.212-1.486 0.849s-0.637 1.911-0.849 2.973l-0.849 3.822h-2.548l2.761-12.953h2.548c-0.212 1.062-0.425 1.911-0.425 2.336s-0.425 1.486-0.849 2.548v0c0.425-0.425 0.849-0.637 1.274-1.062s0.849-0.425 1.486-0.425c0.849 0 1.274 0.212 1.699 0.637s0.637 1.274 0.637 2.123c0 0.425 0 0.849-0.212 1.486l-1.062 5.309z"></path>
<path d="M28.363 10.691c0.849 0 1.486 0.212 1.911 0.849s0.637 1.486 0.637 2.548c0 1.062-0.212 2.123-0.637 2.973s-0.849 1.699-1.486 2.336-1.486 0.849-2.123 0.849c-0.425 0-0.849 0-1.274-0.212s-0.637-0.637-0.849-1.062v0c0 0.849-0.212 1.699-0.425 2.548l-0.637 2.761h-2.548l2.761-13.378h1.911l-0.212 1.486c1.062-1.274 1.911-1.699 2.973-1.699zM27.301 12.602c-0.425 0-0.637 0.212-1.062 0.637s-0.637 0.849-0.849 1.486-0.425 1.274-0.425 2.123c0 0.425 0 0.849 0.212 1.062s0.637 0.212 1.062 0.212c0.425 0 0.637-0.212 1.062-0.637s0.637-0.849 0.849-1.486 0.212-1.274 0.212-1.911c0-1.062-0.212-1.486-1.062-1.486z"></path>
</symbol>
<symbol id="icon-conan" viewBox="0 0 30 32">
<title>conan</title>
<path d="M29.8 10.4c0-0.2 0.2-0.2 0 0 0-0.6-0.2-0.8-0.4-1l-13.2-7c-0.2-0.2-0.6-0.2-0.8 0l-12.8 6.8c-0.4 0.2-0.6 0.6-0.6 1 0 0 0 0.2 0 0.2 0 0.2 0 0.2 0 0.4v12.8c0 0.4 0.2 0.6 0.6 0.8l11.4 6.2c0 0 0 0 0 0 0.2 0.4 0.6 0.6 0.8 0.6 0 0 0 0 0.2 0s0.2 0.2 0.4 0.2c0.2 0 0 0 0.2-0.2 0.4 0 0.4-0.2 0.4-0.4l13.4-6.6c0.4-0.2 0.6-0.4 0.6-0.8v-12.6c0-0.2 0-0.4-0.2-0.4zM15.8 4.4l11 5.8-10.8 6-10.8-6 10.6-5.8zM16 18.4c0.2 0 0.4 0 0.4-0.2l5.6-3v10.6l-6 3v-10.4c0 0 0 0 0 0zM14 28.6l-10-5.6v-11.2l10.6 5.8c-0.4 0.2-0.6 0.6-0.6 1v10zM24 24.8v-10.8l4-2.2v11l-4 2z"></path>
<path d="M15.2 11.6c-0.4 0-0.6-0.2-1-0.6-0.4-0.2-0.6-0.8-0.4-1.2s0.6-0.8 1.2-1.2c0.4-0.2 0.8-0.2 1.2-0.4 1.2-0.2 2.4 0 3 0.6 0.2 0.2 0.2 0.4 0.4 0.6l0.2 1 2.6-1.2-0.2-0.4c-0.2-0.4-0.4-0.8-0.8-1-1.2-1-3.4-1.6-5.8-1.2-0.6 0.2-1.4 0.4-2.2 0.6-1.4 0.6-2.2 1.4-2.6 2.4s0 2 1 2.6c0.6 0.4 1 0.8 1.8 1l0.4 0.2 2.8-1.4-1.6-0.4z"></path>
</symbol>
<symbol id="icon-vagrant2" viewBox="0 0 32 32">
<title>vagrant2</title>
<path d="M30.375 3.188l-3-1.375c-0.188-0.188-0.563-0.188-0.75 0l-7 3.563c-0.438 0.25-0.625 0.625-0.625 0.813v2l-1.813 5.625-2.188-5.625v-2c0-0.188-0.188-0.563-0.375-0.813l-7.25-4.188c0 0 0 0-0.188 0-0.188-0.188-0.563 0-0.813 0l-4 1.813c0 0-0.188 0.188-0.375 0.625l-0.375 2c0 0.188 0 0.375 0 0.563l9.563 22.188c0 0.25 0.188 0.438 0.438 0.438l5.375 2.813c0.188 0 0.375 0.188 0.375 0.188 0.25 0 0.438 0 0.438-0.188l1-0.625 3.375-2.188c0.188-0.188 0.188-0.188 0.438-0.438l8.188-22c0.188-0.188 0.188-0.375 0.188-0.375v-1.813c0-0.375-0.188-0.813-0.625-1zM13 27.188l-9.375-21.563 0.188-1.25 2.563-1.188 10.625 26zM17.375 24.813l-8.375-20.438 4 2.438v1.563c0 0.25 0 0.438 0 0.438l3.375 8.188c0.25 0.625 0.625 1 1 1 0.438 0 0.813-0.375 1-0.813l2.625-8.375c0 0 0-0.188 0-0.438v-1.375l4-2.188zM29 5.813l-8 21.563-2 1.438-0.375-1.188 8.75-23.625 1.625 0.813z"></path>
</symbol>
<symbol id="icon-rpm" viewBox="0 0 32 32">
<title>rpm</title>
<path d="M3.188 24v4h-2.188v-10.375h3c1.375 0 2.375 0.188 3.188 0.75 0.813 0.438 1 1.25 1 2.438 0 0.563-0.188 1.188-0.563 1.563-0.438 0.438-0.813 0.813-1.438 1.25 1.625 2.375 2.625 3.75 3 4.563h-2.188l-2.375-4h-1.438zM3.188 22.188h0.813c0.625 0 1.188-0.188 1.625-0.375 0.188-0.188 0.375-0.625 0.375-1 0-0.438-0.188-0.813-0.625-1-0.188-0.188-0.75-0.438-1.375-0.438h-0.813zM17.813 20.813c0 1.188-0.438 2-1 2.563-0.625 0.625-1.625 0.813-3 0.813h-1v3.813h-2.188v-10.375h3.375c1.188 0 2.188 0.188 2.813 0.75 0.813 0.625 1 1.438 1 2.438zM12.813 22.375h0.813c0.563 0 1.188-0.188 1.563-0.375 0.438-0.188 0.625-0.625 0.625-1.188 0-0.625-0.188-0.813-0.438-1.188-0.375 0-1-0.25-1.563-0.25h-1zM24.188 28l-2.375-8.188c0 1.563 0.188 2.813 0.188 3.375v4.813h-2v-10.375h3l2.375 8 2.625-8h3v10.375h-2v-5c0-0.188 0-0.375 0-0.813 0-0.375 0-1.188 0-2.375l-2.813 8.188zM3.375 16h-2c0-8 6.625-14.375 14.813-14.375 5.188 0 10.188 3 12.813 7.563l-1.813 0.813c-0.188 0-0.188 0-0.375-0.188-2.438-3.625-6.438-6.188-10.625-6.188-7 0-12.813 6.375-12.813 12.375zM16 16v-0.375l11.625-7.813 1.188 1.375z"></path>
</symbol>
<symbol id="icon-sbt" viewBox="0 0 32 32">
<title>sbt</title>
<path d="M8.375 18.813c0 1.188-0.375 2-1.188 2.813-0.813 0.563-2 1-3.375 1-1.438 0-2.625-0.25-3.625-0.813v-2.625c0.813 0.438 1.625 0.625 2.188 0.813 0.625 0.188 1.25 0.188 1.625 0.188 0.625 0 1-0.188 1.375-0.375 0.438-0.188 0.438-0.625 0.438-1 0-0.188 0-0.438-0.188-0.625-0.25 0-0.438-0.188-0.813-0.375-0.188-0.188-0.813-0.625-1.625-1-0.813-0.188-1.375-0.625-1.813-1-0.375-0.438-0.563-0.813-0.75-1.188-0.25-0.438-0.438-1-0.438-1.625 0-1.188 0.438-2 1.188-2.625 0.625-0.563 1.813-1 3.25-1 0.563 0 1.375 0 2 0.25 0.563 0.188 1.188 0.375 2 0.563l-1.25 2.188c-0.563-0.188-1.188-0.375-1.563-0.563-0.625 0-1-0.188-1.438-0.188-0.563 0-0.75 0.188-1.188 0.375-0.375 0.188-0.375 0.625-0.375 1 0 0.188 0 0.375 0.188 0.625 0 0.188 0.188 0.375 0.625 0.563 0.188 0.188 0.75 0.438 1.75 1 1.25 0.625 2 1.188 2.438 1.813 0.375 0.375 0.563 1 0.563 1.813zM11.188 9.625h4c1.813 0 3.188 0.188 4 0.75 0.813 0.625 1.188 1.438 1.188 2.438 0 0.813-0.188 1.375-0.563 1.813-0.188 0.563-0.813 1-1.438 1 0.813 0.188 1.438 0.563 1.813 1 0.438 0.375 0.625 1.188 0.625 2 0 1.188-0.438 2-1.188 2.75-0.813 0.625-2 1-3.438 1h-5zM14 14.625h1.625c0.75 0 1.188-0.25 1.563-0.438 0.188-0.188 0.438-0.375 0.438-1 0-0.375-0.25-0.813-0.625-1-0.188-0.188-0.813-0.375-1.625-0.375h-1.375zM14 16.813v3.375h1.813c0.813 0 1.375-0.188 1.563-0.375 0.25-0.188 0.625-0.813 0.625-1.438 0-1-0.813-1.563-2.188-1.563zM28.625 22.375h-2.813v-10.563h-3.438v-2.188h9.625v2.188h-3.375z"></path>
</symbol>
<symbol id="icon-p2" viewBox="0 0 32 32">
<title>p2</title>
<path d="M14.625 12.813c0 2-0.625 3.375-1.813 4.375-1.438 1-3 1.625-5.438 1.625h-1.563v6.375h-3.813v-18.188h5.813c2.188 0 3.813 0.375 5 1.375s1.813 2.438 1.813 4.438zM5.813 15.625h1.188c1.188 0 2-0.25 2.625-0.813 0.563-0.438 0.75-1.188 0.75-2s-0.188-1.625-0.75-2c-0.25-0.438-1-0.625-2-0.625h-1.813zM30 25.188h-12.625v-2.563l4.438-4.625c1.375-1.375 2.188-2.375 2.563-2.813 0.438-0.563 0.813-1 0.813-1.375 0.188-0.438 0.188-1 0.188-1.438 0-0.75-0.188-1.188-0.563-1.563-0.188-0.625-0.625-0.813-1.438-0.813-0.75 0-1.375 0.188-2 0.375-0.563 0.438-1.375 0.813-2 1.438l-2-2.438c0.813-0.75 1.625-1.375 2-1.563 0.625-0.438 1.25-0.625 2-0.813 0.625-0.188 1.438-0.188 2.438-0.188 1.188 0 2.188 0.188 3 0.563 0.813 0.438 1.563 1 2 1.813 0.375 0.813 0.813 1.625 0.813 2.625 0 0.813-0.25 1.563-0.438 2.375s-0.813 1.438-1.375 2.188c-0.625 0.813-1.813 1.813-3.188 3.25l-2.625 2.188v0.188h8z"></path>
</symbol>
<symbol id="icon-npm" viewBox="0 0 32 32">
<title>npm</title>
<path d="M5.188 21v-4.188c0-0.625 0-1-0.188-1.188-0.188-0.25-0.375-0.438-0.625-0.438-0.375 0-0.75 0.188-1 0.625-0.188 0.188-0.375 1-0.375 1.813v3.375h-2.625v-7.813h2l0.438 1h0.188c0.188-0.375 0.625-0.563 1-0.813 0.375-0.188 0.813-0.188 1.375-0.188 0.813 0 1.625 0.188 2 0.813 0.438 0.625 0.625 1 0.625 2v5zM14.813 21.188c-0.438 0-0.813 0-1-0.188-0.438-0.188-0.625-0.375-1-0.625h-0.188c0 0.625 0.188 0.813 0.188 1v3.25h-2.813v-11.438h2.188l0.438 1h0.188c0.375-0.813 1.188-1.188 2-1.188s1.563 0.375 2 1c0.375 0.625 0.813 1.625 0.813 3 0 1.188-0.25 2.188-0.813 3-0.438 0.813-1.188 1.188-2 1.188zM13.813 15.188c-0.438 0-0.625 0.188-0.813 0.438-0.188 0.188-0.188 0.75-0.188 1.188v0.188c0 0.625 0 1.188 0.188 1.375 0.188 0.25 0.375 0.438 0.813 0.438 0.375 0 0.563-0.188 0.813-0.438 0.188-0.188 0.188-0.75 0.188-1.375s0-1.188-0.188-1.375c-0.25-0.25-0.438-0.438-0.813-0.438zM29 21v-4.188c0-0.625 0-1-0.188-1.188-0.188-0.25-0.438-0.438-0.625-0.438-0.375 0-0.813 0.188-1 0.625-0.188 0.375-0.188 1-0.188 1.563v3.625h-2.625v-4.188c0-0.625 0-1-0.188-1.188-0.188-0.25-0.375-0.438-0.563-0.438-0.438 0-0.813 0.188-1 0.625-0.25 0.375-0.25 1-0.25 1.813v3.375h-3v-7.813h2l0.438 1h0.188c0.188-0.375 0.625-0.563 0.813-0.813 0.375-0.188 0.813-0.188 1.375-0.188 1.188 0 2 0.438 2.438 1h0.188c0.188-0.375 0.563-0.563 1-0.813 0.375-0.188 0.813-0.188 1.188-0.188 1 0 1.625 0.188 2 0.813s0.625 1.188 0.625 2.188v5h-2.625z"></path>
</symbol>
<symbol id="icon-maven" viewBox="0 0 32 32">
<title>maven</title>
<path d="M0.137 28.082l2.416-13.29c0.453-2.416 0.755-4.606 0.982-6.494h5.059l-0.226 3.096c1.888-2.643 4.304-3.625 6.721-3.625 3.171 0 4.606 1.963 4.606 3.625 1.963-2.416 4.606-3.625 7.023-3.625 3.171 0 4.833 1.963 4.833 5.361 0 0.906-0.226 2.416-0.453 3.322l-1.963 11.629h-5.588l1.963-10.874c0.226-0.755 0.226-1.661 0.226-2.416 0-1.435-0.68-2.416-1.888-2.416-1.963 0-3.927 2.643-4.606 6.494l-1.737 9.212h-5.739l1.888-10.874c0.226-0.755 0.226-1.661 0.226-2.19 0-1.435-0.453-2.416-1.888-2.416-1.963 0-4.153 2.945-4.833 6.796l-1.208 8.684z"></path>
</symbol>
<symbol id="icon-debian" viewBox="0 0 32 32">
<title>debian</title>
<path d="M20.375 31.625c-9 0-16.188-7.438-16.188-16.25 0-7.188 6-13.188 13.188-13.188 6 0 10.813 4.813 10.813 10.813 0 4.813-4 8.813-8.813 8.813-4 0-7.188-3.188-7.188-7.188 0-3.438 2.625-6 6-6 0.625 0 1 0.375 1 1 0 0.563-0.563 0.75-1.188 0.75-2.188 0-4 1.813-4 4 0 3 2.375 5.25 5.188 5.25 3.813 0 6.813-3 6.813-6.813 0-4.813-4-8.813-8.813-8.813-6.188 0-11.188 5-11.188 11.188 0 7.813 6.375 14.188 14.188 14.188 0.625 0 1 0.438 1 1 0 0.625-0.188 1.25-0.813 1.25z"></path>
</symbol>
<symbol id="icon-gems" viewBox="0 0 32 32">
<title>gems</title>
<path d="M31.625 8.375l-9-6.188c0-0.188-0.25-0.188-0.438-0.188h-12.375c-0.188 0-0.438 0-0.438 0.188l-9 6.188c-0.188 0.25-0.375 0.438-0.375 0.625s0 0.625 0.188 0.813l15 19.813c0.188 0.188 0.438 0.375 0.813 0.375s0.625-0.188 0.813-0.375l15-19.813c0.188-0.188 0.188-0.438 0.188-0.813 0-0.188-0.188-0.375-0.375-0.625zM12 8l-1-4h10l-1 4zM19.375 10l-3.375 13.375-3.375-13.375zM22.813 4.813l4.813 3.188h-5.625zM9.188 4.813l0.813 3.188h-5.625zM10.375 10l4 15.188-11.563-15.188zM17.625 25.188l4-15.188h7.563z"></path>
</symbol>
<symbol id="icon-nuget" viewBox="0 0 32 32">
<title>nuget</title>
<path d="M20.625 27.375c-3.813 0-7-3.188-7-7 0-3.75 3.188-7 7-7 3.75 0 7 3.25 7 7 0 3.813-3.25 7-7 7zM20.625 15.375c-2.813 0-5 2.25-5 5 0 2.813 2.188 5 5 5 2.75 0 5-2.188 5-5 0-2.75-2.25-5-5-5zM3 6.625c-1.625 0-3-1.438-3-3 0-1.625 1.375-3 3-3s3 1.188 3 3c0 1.75-1.188 3-3 3zM3 2.625c-0.375 0-1 0.375-1 1 0 0.563 0.375 1 1 1s1-0.625 1-1c0-0.438-0.375-1-1-1zM11 14.375c-1.813 0-3-1.375-3-3 0-1.563 1.375-3 3-3s3 1.438 3 3c0 1.625-1.375 3-3 3zM11 10.375c-0.625 0-1 0.438-1 1 0 0.625 0.375 1 1 1s1-0.375 1-1c0-0.563-0.625-1-1-1zM23 32h-10c-5 0-9-4-9-9v-10c0-5 4-9 9-9h10c5 0 9 4 9 9v10c0 5-4 9-9 9zM13 6c-3.813 0-7 3.188-7 7v10c0 3.813 3.188 7 7 7h10c3.813 0 7-3.188 7-7v-10c0-3.813-3.188-7-7-7z"></path>
</symbol>
<symbol id="icon-xray" viewBox="0 0 34 32">
<title>xray</title>
<path d="M1.463 29.268h31.073v2.781h-31.073v-2.78z"></path>
<path d="M19.171 13.512c1.22-1.22 1.22-3.171 0-4.39s-3.171-1.22-4.39 0c-1.22 1.22-1.22 3.171 0 4.39s3.171 1.22 4.39 0v0zM21.366 22c-2.341 0.732-4.732 0.927-7.122 0.439-3.756-0.829-7.171-3.268-9.902-5.854-1.512-1.463-2.927-3.073-3.902-4.585l-0.439-0.634 0.39-0.634c0.488-0.78 1.22-1.707 2-2.585 3.463-3.902 8-7.61 13.317-8.098 6.976-0.634 14.195 5.073 17.854 10.634l0.439 0.634c-2.293 3.61-5.22 6.098-8.683 8.585l-0.829 0.585-4.488-4.488c-2.146 1.366-5.024 1.073-6.878-0.78-2.146-2.146-2.146-5.659 0-7.805s5.659-2.146 7.805 0c1.805 1.805 2.146 4.683 0.78 6.878l3.024 3.024c2.195-1.659 4.732-3.756 6.341-6-3.268-4.488-9.317-9.366-15.171-8.829-4.585 0.439-8.683 3.902-11.659 7.22-0.488 0.537-0.976 1.122-1.317 1.61 0.829 1.171 1.902 2.39 3.122 3.512 2.39 2.293 5.415 4.488 8.732 5.171 2 0.439 4 0.244 5.902-0.341l0.683 2.341z"></path>
</symbol>
<symbol id="icon-xray-scanning" viewBox="0 0 32 32">
<title>xray-scanning</title>
<path d="M16.107 1.067c-8.213 0-14.933 6.72-14.933 14.933s6.72 14.933 14.933 14.933c8.213 0 14.933-6.72 14.933-14.933s-6.613-14.933-14.933-14.933zM16.107 28.8c-7.040 0-12.8-5.76-12.8-12.8s5.76-12.8 12.8-12.8c3.2 0 6.187 1.28 8.427 3.2l-2.773 2.773c-1.6-1.387-3.733-2.347-5.973-2.347-4.8 0-8.747 3.733-9.067 8.533-0.853 0.427-1.387 1.28-1.387 2.24 0 1.28 1.067 2.347 2.347 2.347 1.493 2.987 4.587 5.12 8.107 5.12 1.067 0 2.027-0.213 2.987-0.533 0.427 0.427 1.067 0.747 1.707 0.747 1.28 0 2.347-1.067 2.347-2.347 0-0.32-0.107-0.747-0.213-1.067 1.387-1.6 2.24-3.627 2.24-5.973s-0.853-4.373-2.347-5.973l2.88-2.88c2.24 2.347 3.52 5.44 3.52 8.853 0 7.147-5.653 12.907-12.8 12.907zM18.24 23.68c-0.747 0.213-1.6 0.427-2.453 0.427-3.093 0-5.76-1.707-7.040-4.267 0.747-0.427 1.387-1.173 1.387-2.133 0-1.28-0.96-2.24-2.24-2.347 0.427-4.053 3.84-7.253 8-7.253 2.027 0 3.84 0.747 5.227 2.027l-2.88 2.667c-0.64-0.427-1.28-0.64-2.133-0.64-2.027 0-3.733 1.707-3.733 3.733s1.707 3.733 3.733 3.733c2.027 0 3.733-1.707 3.733-3.733 0-0.853-0.32-1.707-0.853-2.347l2.773-2.773c1.28 1.387 2.027 3.2 2.027 5.227 0 1.92-0.64 3.733-1.813 5.12-0.427-0.32-0.96-0.533-1.493-0.533-1.28 0-2.347 1.067-2.347 2.347 0 0.32 0 0.533 0.107 0.747zM18.773 15.893c0 1.493-1.173 2.667-2.667 2.667s-2.667-1.173-2.667-2.667 1.173-2.667 2.667-2.667c0.427 0 0.96 0.107 1.28 0.32l-2.027 2.027 0.747 0.747 2.027-2.027c0.427 0.533 0.64 1.067 0.64 1.6z"></path>
</symbol>
<symbol id="icon-xray-impact-analysis" viewBox="0 0 32 32">
<title>xray-impact-analysis</title>
<path d="M21.44 13.867c-1.28 0-2.24 0.96-2.347 2.133h-5.973c0-0.533-0.32-1.067-0.64-1.493l2.453-2.453c0.32 0.213 0.747 0.32 1.173 0.32 1.28 0 2.347-1.067 2.347-2.347s-1.067-2.347-2.347-2.347c-1.28 0-2.347 1.067-2.347 2.347 0 0.427 0.107 0.96 0.427 1.28l-2.56 2.56c-0.32 0-0.533 0-0.853 0-1.28 0-2.347 1.067-2.347 2.347s1.067 2.347 2.347 2.347c0.213 0 0.32 0 0.427 0l2.667 2.667c-0.107 0.32-0.213 0.64-0.213 1.067 0 1.28 1.067 2.347 2.347 2.347s2.347-1.067 2.347-2.347-1.067-2.347-2.347-2.347c-0.533 0-1.067 0.213-1.493 0.533l-2.347-2.347c0.32-0.213 0.533-0.64 0.747-0.96h6.293c0.32 0.853 1.173 1.493 2.24 1.493 1.28 0 2.347-1.067 2.347-2.347s-0.96-2.453-2.347-2.453zM16.107 21.013c0.747 0 1.28 0.64 1.28 1.28s-0.64 1.28-1.28 1.28-1.28-0.64-1.28-1.28 0.533-1.28 1.28-1.28zM21.44 17.493c-0.747 0-1.28-0.64-1.28-1.28s0.64-1.28 1.28-1.28 1.28 0.64 1.28 1.28-0.533 1.28-1.28 1.28z"></path>
<path d="M16 1.067c-8.213 0-14.933 6.72-14.933 14.933s6.72 14.933 14.933 14.933c8.213 0 14.933-6.72 14.933-14.933s-6.72-14.933-14.933-14.933zM16 28.8c-7.040 0-12.8-5.76-12.8-12.8s5.76-12.8 12.8-12.8c7.040 0 12.8 5.76 12.8 12.8s-5.76 12.8-12.8 12.8z"></path>
</symbol>
<symbol id="icon-xray-alert" viewBox="0 0 30 32">
<title>xray-alert</title>
<path d="M28.97 31.251c0 0 0 0 0 0h-27.847c-0.306 0-0.579-0.17-0.715-0.409s-0.17-0.579-0.034-0.817l13.923-27.37c0.136-0.272 0.443-0.477 0.749-0.477s0.613 0.17 0.749 0.477l13.889 27.302c0.102 0.136 0.136 0.306 0.136 0.477 0 0.443-0.374 0.817-0.851 0.817zM2.519 29.549h25.055l-12.528-24.647-12.528 24.647z"></path>
<path d="M16.17 23.353h-2.179c-0.749 0-1.021-0.783-1.021-1.43l-0.374-7.932c0 0 0-0.034 0-0.034 0-0.17 0.034-0.34 0.136-0.477 0-0.034 0.034-0.102 0.034-0.238 0.068-0.409 0.409-0.715 0.851-0.715h2.962c0.409 0 0.749 0.272 0.851 0.681 0.102 0.136 0.17 0.34 0.17 0.545 0 0 0 0.034 0 0.034l-0.409 8.34c0 0.613-0.374 1.226-1.021 1.226zM14.672 21.651h0.817l0.34-7.421h-1.532l0.374 7.421z"></path>
<path d="M16.102 28.221h-2.077c-0.545 0-0.953-0.443-0.953-1.021v-2.077c0-0.579 0.443-1.021 0.953-1.021h2.077c0.545 0 0.953 0.443 0.953 1.021v2.077c0 0.579-0.409 1.021-0.953 1.021zM14.4 26.86h1.294v-1.396h-1.294v1.396z"></path>
</symbol>
<symbol id="icon-gz" viewBox="0 0 32 32">
<title>gz</title>
<path d="M13 22h2.6v3.6c-0.4 0.2-0.8 0.4-1.2 0.4s-0.8 0-1.2 0c-1 0-2-0.4-2.6-1s-0.8-1.6-0.8-2.8c0-1.2 0.4-2 1-2.6s1.6-1 2.8-1c0.8 0 1.4 0.2 2.2 0.4l-0.4 1c-0.8-0.2-1.4-0.2-2-0.2-0.8 0-1.4 0.2-1.8 0.6s-0.6 1.2-0.6 2c0 0.8 0.2 1.6 0.6 2s1 0.6 1.8 0.6c0.4 0 0.8 0 1.2-0.2v-1.8h-1.6v-1z"></path>
<path d="M22.4 26h-5.2v-0.8l3.6-5.4h-3.6v-1h5v0.8l-3.6 5.4h3.8v1z"></path>
<path d="M2 0v32h28v-32h-28zM28 30h-24v-28h10v2h-2v2h2v2h-2v2h2v2h-2v2h2v2h6v-2h-2v-2h2v-2h-2v-2h2v-2h-2v-2h2v-2h8v28z"></path>
</symbol>
<symbol id="icon-tar" viewBox="0 0 32 32">
<title>tar</title>
<path d="M10.4 26h-1.2v-6.2h-2.2v-1h5.4v1h-2v6.2z"></path>
<path d="M17.4 26l-0.8-2h-2.6l-0.6 2h-1.2l2.6-7.2h1.2l2.8 7.2h-1.4zM16.4 23l-0.6-2c0-0.2-0.2-0.4-0.2-0.6s-0.2-0.4-0.2-0.6c0 0.4-0.2 0.8-0.4 1.4l-0.6 1.8h2z"></path>
<path d="M20.8 23v3h-1.2v-7.2h2c1 0 1.6 0.2 2 0.6s0.6 0.8 0.6 1.6c0 0.8-0.4 1.6-1.4 1.8l2 3.2h-1.4l-1.4-3h-1.2zM20.8 22.2h0.8c0.6 0 1-0.2 1.2-0.4s0.4-0.6 0.4-0.8c0-0.4-0.2-0.6-0.4-0.8s-0.6-0.2-1.2-0.2h-0.8v2.2z"></path>
<path d="M2 0v32h28v-32h-28zM28 30h-24v-28h10v2h-2v2h2v2h-2v2h2v2h-2v2h2v2h6v-2h-2v-2h2v-2h-2v-2h2v-2h-2v-2h2v-2h8v28z"></path>
</symbol>
<symbol id="icon-css" viewBox="0 0 32 32">
<title>css</title>
<path d="M30 31c0 0.625-0.375 1-1 1h-26c-0.625 0-1-0.375-1-1v-20.813c0-0.188 0-0.375 0.188-0.563l7.813-9.25c0.188-0.188 0.375-0.375 0.813-0.375h18.188c0.625 0 1 0.375 1 1zM28 2h-15.188v8.188c0 0.625-0.438 1-1 1h-7.813v18.813h24zM5.188 9.188h5.625v-6.563zM11.188 19.625c-0.563 0-1.188 0.188-1.563 0.75-0.438 0.438-0.625 1.25-0.625 2 0 0.813 0.188 1.625 0.625 2 0.375 0.438 1 0.625 1.563 0.625 0.438 0 0.625 0 0.813 0s0.625-0.188 0.813-0.188v1c-0.625 0.188-1.188 0.375-2 0.375-1 0-1.813-0.375-2.438-1-0.563-0.563-0.75-1.563-0.75-2.813 0-0.75 0.188-1.375 0.375-2 0.188-0.563 0.625-1 1.188-1.188 0.625-0.188 1.188-0.375 1.813-0.375 0.813 0 1.375 0.188 2 0.375l-0.188 0.813c-0.438 0-0.625-0.188-0.813-0.188-0.375-0.188-0.625-0.188-0.813-0.188zM18.625 24c0 0.625-0.25 1.188-0.625 1.375-0.625 0.438-1.188 0.625-2 0.625s-1.375-0.188-2-0.375v-1.25c0.375 0.25 0.625 0.25 1 0.438 0.375 0 0.813 0.188 1 0.188 0.375 0 0.813 0 1-0.188s0.375-0.438 0.375-0.813c0-0.188-0.188-0.375-0.375-0.625-0.188-0.188-0.625-0.375-1.188-0.563-0.625-0.188-1.188-0.625-1.438-1-0.188-0.438-0.375-0.813-0.375-1.188 0-0.625 0.188-1.25 0.625-1.438 0.375-0.375 1-0.563 1.75-0.563 0.625 0 1.438 0.188 2 0.375l-0.375 1c-0.625-0.188-1.188-0.375-1.625-0.375-0.375 0-0.563 0-0.75 0.188-0.25 0.188-0.25 0.375-0.25 0.563 0 0.25 0 0.438 0.25 0.438 0 0.188 0.188 0.188 0.375 0.375s0.625 0.188 1 0.438c0.625 0.188 1 0.375 1.188 0.563s0.438 0.438 0.625 0.625c-0.438 0.563-0.188 0.813-0.188 1.188zM24 24c0 0.625-0.188 1.188-0.625 1.375-0.375 0.438-1 0.625-2 0.625s-1.375-0.188-2-0.375v-1.25c0.438 0.25 0.625 0.25 1 0.438 0.438 0 0.813 0.188 1 0.188 0.438 0 0.813 0 1-0.188 0.25-0.188 0.438-0.438 0.438-0.813 0-0.188-0.188-0.375-0.438-0.625-0.188-0.188-0.563-0.375-1.188-0.563-0.563-0.188-1.188-0.625-1.375-1-0.188-0.438-0.438-0.813-0.438-1.188 0-0.625 0.25-1 0.625-1.438 0.375-0.375 1-0.563 1.813-0.563 0.563 0 1.375 0.188 2 0.375l-0.188 1c-0.625-0.188-1.25-0.375-1.625-0.375s-0.625 0-0.813 0.188c-0.188 0.188-0.188 0.375-0.188 0.563 0 0.25 0 0.438 0.188 0.438 0 0.188 0.188 0.188 0.438 0.375 0.188 0.188 0.563 0.188 1 0.438 0.563 0.188 1 0.375 1.188 0.563s0.375 0.438 0.563 0.625c-0.375 0.563-0.375 0.813-0.375 1.188z"></path>
</symbol>
<symbol id="icon-json" viewBox="0 0 32 32">
<title>json</title>
<path d="M30 31c0 0.625-0.375 1-1 1h-26c-0.625 0-1-0.375-1-1v-20.813c0-0.188 0-0.375 0.188-0.563l7.813-9.25c0.188-0.188 0.375-0.375 0.813-0.375h18.188c0.625 0 1 0.375 1 1zM28 2h-15.188v8.188c0 0.625-0.438 1-1 1h-7.813v18.813h24zM5.188 9.188h5.625v-6.563zM5.813 27.813c-0.438 0-0.625 0-0.813-0.188v-0.813c0.188 0 0.375 0 0.813 0 0.375 0 0.563 0 0.813-0.188 0.188-0.25 0.188-0.438 0.188-0.813v-7h0.813v7.188c0 0.625-0.25 1-0.438 1.375-0.188 0.438-0.813 0.438-1.375 0.438zM12.813 24c0 0.625-0.188 1.188-0.625 1.375-0.375 0.25-1.188 0.625-2 0.625s-1.375-0.188-2-0.375v-0.813c0.188 0.188 0.625 0.188 1 0.188 0.438 0 0.625 0.188 1 0.188 0.625 0 1-0.188 1.188-0.375 0.438 0 0.625-0.188 0.625-0.625 0-0.188 0-0.375-0.188-0.563-0.188-0.25-0.188-0.438-0.438-0.438-0.188-0.188-0.563-0.188-1-0.375-0.563-0.188-1.188-0.625-1.375-0.813-0.188-0.375-0.375-0.813-0.375-1.188 0-0.625 0.188-1 0.563-1.438 0.188-0.375 0.813-0.563 1.438-0.563 0.75 0 1.375 0.188 2 0.375l-0.25 0.625c-0.563-0.188-1.188-0.438-1.75-0.438-0.438 0-0.813 0-1 0.25-0.25 0.188-0.438 0.375-0.438 0.75 0 0.25 0 0.438 0.188 0.625 0 0.188 0.25 0.375 0.438 0.375 0.188 0.438 0.563 0.438 1 0.625 0.813 0.188 1.188 0.625 1.563 0.813 0.25 0.375 0.438 0.813 0.438 1.188zM19.625 22.375c0 1.25-0.25 2-0.813 2.625-0.625 0.625-1.438 1-2.438 1s-1.75-0.375-2.375-1c-0.625-0.625-0.813-1.625-0.813-2.813s0.188-2 0.813-2.813c0.625-0.563 1.375-1 2.375-1s1.813 0.438 2.438 1c0.563 1 0.813 1.813 0.813 3zM14 22.375c0 1 0.188 1.813 0.625 2.25 0.375 0.375 1 0.75 1.75 0.75 0.813 0 1.438-0.188 1.813-0.75 0.438-0.625 0.625-1.25 0.625-2.25s-0.188-1.563-0.625-2.188c-0.375-0.375-1-0.813-1.813-0.813-0.75 0-1.375 0.25-1.75 0.813-0.438 0.625-0.625 1.188-0.625 2.188zM26 26h-1l-4-6c0 0.813 0 1.375 0 2v4h-0.813v-7.188h1l3.813 6c0 0 0-0.438 0-0.813s0-0.813 0-1v-4h1z"></path>
</symbol>
<symbol id="icon-pdf" viewBox="0 0 32 32">
<title>pdf</title>
<path d="M12 21c0 0.813-0.188 1.375-0.813 1.813-0.375 0.375-1.188 0.563-2 0.563h-0.813v2.625h-1.188v-7.188h2c0.813 0 1.625 0.188 2 0.563 0.625 0.438 0.813 0.813 0.813 1.625zM8.375 22.375h0.625c0.625 0 1-0.188 1.375-0.375 0.25-0.188 0.438-0.625 0.438-1s-0.188-0.813-0.438-1c-0.188 0-0.563-0.188-1.188-0.188h-0.813zM19.188 22.375c0 1.25-0.375 2-1 2.813-0.563 0.438-1.563 0.813-2.813 0.813h-2v-7.188h2.25c1.188 0 2 0.375 2.563 1 0.813 0.563 1 1.375 1 2.563zM18 22.375c0-1.75-0.813-2.563-2.375-2.563h-1v5.188h0.75c1.813 0 2.625-0.813 2.625-2.625zM22 26h-1.188v-7.188h4v1h-2.813v2.188h2.625v1h-2.625zM30 31c0 0.625-0.375 1-1 1h-26c-0.625 0-1-0.375-1-1v-20.813c0-0.188 0-0.375 0.188-0.563l7.813-9.25c0.188-0.188 0.375-0.375 0.813-0.375h18.188c0.625 0 1 0.375 1 1zM28 2h-15.188v8.188c0 0.625-0.438 1-1 1h-7.813v18.813h24zM5.188 9.188h5.625v-6.563z"></path>
</symbol>
<symbol id="icon-txt" viewBox="0 0 32 32">
<title>txt</title>
<path d="M30 31c0 0.625-0.375 1-1 1h-26c-0.625 0-1-0.375-1-1v-20.813c0-0.188 0-0.375 0.188-0.563l7.813-9.25c0.188-0.188 0.375-0.375 0.813-0.375h18.188c0.625 0 1 0.375 1 1zM28 2h-15.188v8.188c0 0.625-0.438 1-1 1h-7.813v18.813h24zM5.188 9.188h5.625v-6.563zM12 16v2h4v8h2v-8h4v-2z"></path>
</symbol>
<symbol id="icon-xml" viewBox="0 0 32 32">
<title>xml</title>
<path d="M11.813 26h-1.438l-1.75-2.813-1.813 2.813h-1.188l2.375-3.625-2.188-3.563h1.188l1.813 2.813 1.563-2.813h1.25l-2.25 3.563zM15.813 26l-2-6c0 0.813 0 1.813 0 2.375v3.625h-1v-7.188h1.563l2 5.563 2-5.563h1.625v7.188h-1v-3.625c0-0.375 0-0.75 0-1.375s0-1 0-1l-2.188 6zM22 26v-7.188h1.188v6.188h3v1zM30 31c0 0.625-0.375 1-1 1h-26c-0.625 0-1-0.375-1-1v-20.813c0-0.188 0-0.375 0.188-0.563l7.813-9.25c0.188-0.188 0.375-0.375 0.813-0.375h18.188c0.625 0 1 0.375 1 1zM28 2h-15.188v8.188c0 0.625-0.438 1-1 1h-7.813v18.813h24zM5.188 9.188h5.625v-6.563z"></path>
</symbol>
<symbol id="icon-zip" viewBox="0 0 32 32">
<title>zip</title>
<path d="M2 0v32h28v-32zM28 30h-24v-28h10v2h-2v2h2v2h-2v2h2v2h-2v2h2v2h6v-2h-2v-2h2v-2h-2v-2h2v-2h-2v-2h2v-2h8zM13.625 26h-5.25v-0.813l3.625-5.375h-3.375v-1h5v0.813l-3.625 5.375h3.813v1zM15.188 26v-7.188h1.188v7.188zM23.625 21c0 0.813-0.25 1.375-0.813 1.813-0.438 0.375-1.188 0.563-2 0.563h-0.813v2.625h-1.188v-7.188h2c0.813 0 1.563 0.188 2 0.563 0.563 0.438 0.813 0.813 0.813 1.625zM20 22.188h0.625c0.563 0 1-0.188 1.375-0.375 0.188-0.188 0.375-0.625 0.375-1 0-0.438-0.188-0.813-0.375-1s-0.625-0.438-1.188-0.438h-0.813z"></path>
</symbol>
<symbol id="icon-general" viewBox="0 0 32 32">
<title>general</title>
<path d="M30 31c0 0.625-0.375 1-1 1h-26c-0.375 0-1-0.375-1-1v-20.813c0-0.188 0-0.375 0.188-0.563l7.813-9.25c0.188-0.188 0.375-0.375 0.813-0.375h18.188c0.625 0 1 0.375 1 1zM28 2h-15.188v8.188c0 0.625-0.438 1-1 1h-7.813v18.813h24zM5.188 9.188h5.625v-6.563z"></path>
</symbol>
<symbol id="icon-archive-2" viewBox="0 0 32 32">
<title>archive-2</title>
<path d="M2 0v32h28v-32zM28 30h-24v-28h10v2h-2v2h2v2h-2v2h2v2h-2v2h2v2h6v-2h-2v-2h2v-2h-2v-2h2v-2h-2v-2h2v-2h8z"></path>
</symbol>
<symbol id="icon-js" viewBox="0 0 32 32">
<title>js</title>
<path d="M30 31c0 0.625-0.375 1-1 1h-26c-0.625 0-1-0.375-1-1v-20.813c0-0.188 0-0.375 0.188-0.563l7.813-9.25c0.188-0.188 0.375-0.375 0.813-0.375h18.188c0.625 0 1 0.375 1 1zM28 2h-15.375v8.188c0 0.625-0.438 1-1 1h-7.625v18.813h24zM5.188 9.188h5.625v-6.563zM11.188 28.625c-0.375 0-0.813 0-1-0.25v-1.375c0.438 0 0.625 0.188 1 0.188 0.813 0 1.188-0.563 1.188-1.563v-9.438h1.625v9.438c0 1-0.188 1.75-0.813 2.188-0.375 0.375-1.188 0.813-2 0.813zM22 23.188c0 0.813-0.375 1.625-1 2-0.625 0.625-1.375 0.813-2.625 0.813-1 0-2-0.188-2.563-0.625v-1.375c0.375 0.188 1 0.375 1.375 0.375 0.438 0.25 1 0.25 1.438 0.25 0.563 0 1-0.25 1.375-0.438 0.188-0.188 0.375-0.563 0.375-1 0-0.375-0.188-0.563-0.375-1-0.188-0.188-0.813-0.563-1.625-0.813-0.75-0.375-1.563-0.75-1.75-1.188-0.625-0.375-0.813-1-0.813-1.563 0-0.813 0.188-1.438 0.813-2 0.75-0.438 1.375-0.625 2.375-0.625s1.813 0.188 2.813 0.625l-0.438 1.375c-0.75-0.375-1.563-0.625-2.375-0.625-0.625 0-1 0.25-1.188 0.438s-0.438 0.375-0.438 0.813c0 0.188 0 0.375 0.25 0.563 0.188 0.188 0.188 0.438 0.563 0.625 0.188 0.188 0.625 0.375 1.438 0.563 0.75 0.25 1.188 0.625 1.563 0.813 0.438 0.188 0.625 0.625 0.813 0.813 0 0.375 0 0.813 0 1.188z"></path>
</symbol>
<symbol id="icon-virtual-repo" viewBox="0 0 32 32">
<title>virtual-repo</title>
<path d="M16 17.625c-0.188 0-0.375 0-0.375 0l-15-7c-0.438 0-0.813-0.438-0.813-0.813 0-0.438 0.188-0.813 0.563-1l15-7c0.25-0.188 0.625-0.188 1 0l15 6.813c0.438 0.188 0.625 0.563 0.625 1 0 0.375-0.188 0.75-0.625 1l-15 7c-0.188 0-0.375 0-0.375 0zM3.625 9.625l12.375 5.75 12.375-5.75-12.375-5.813zM16 30.375c-0.188 0-0.375 0-0.375-0.188l-15-7.813c-0.438-0.188-0.625-0.563-0.625-0.75v-12h2v11.375l14 7.375 14-7.75v-11h2v11.375c0 0.375-0.188 0.625-0.625 0.813l-15 8.375c-0.188 0.188-0.375 0.188-0.375 0.188zM16 24.188c-0.188 0-0.188 0-0.375 0l-9-4.188c-0.438-0.188-0.625-0.625-0.625-1v-6.188c0-0.438 0.188-0.813 0.625-1l9-4.438c0.188-0.188 0.563-0.188 0.75 0l9 4.25c0.438 0.375 0.625 0.563 0.625 1v6c0 0.375-0.188 0.75-0.625 0.75l-9 4.625c-0.188 0.188-0.375 0.188-0.375 0.188zM8 18.375l8 3.813 8-4.188v-4.625l-8-3.75-8 4zM15 16.625h2v12.563h-2z"></path>
</symbol>
<symbol id="icon-git-lfs" viewBox="0 0 32 32">
<title>git-lfs</title>
<path d="M24.375 7.375l-12.375 7.813v4.813l-4-1.813v-5l12.813-7.813-4.813-2.75-14 8v10.75l14 8 14-8v-10.75z"></path>
</symbol>
<symbol id="icon-remote-repo" viewBox="0 0 32 32">
<title>remote-repo</title>
<path d="M23.5 5.25c-0.125 0-0.438-0.125-0.625-0.313-1.938-1.75-4.313-2.875-7.063-2.875-2.563 0-4.938 1.125-6.875 2.875-0.313 0.313-0.938 0.313-1.25 0s-0.313-0.938 0-1.25c2.25-2.063 5.125-3.375 8.125-3.375 3.063 0 5.938 1.313 8.188 3.375 0.313 0.313 0.313 0.938 0 1.25-0.188 0.188-0.313 0.313-0.5 0.313zM21.625 8.5c-0.188 0-0.375 0-0.5-0.188-3.875-3.063-6.75-3.063-10.375 0-0.375 0.188-0.813 0.188-1.125-0.125-0.375-0.5-0.375-1 0.125-1.313 4.313-3.5 8-3.5 12.5 0 0.313 0.313 0.5 0.813 0.125 1.313-0.313 0.125-0.625 0.313-0.75 0.313zM23.813 15.688l-7.813-3.875-7.813 3.875 7.813 3.813zM16 7.5l-12.813 5.938v11.688l12.813 6.375 12.813-6.688v-11.375zM27.188 23.5c0 0.313-0.438 0.688-0.813 0.813l-9.875 4.938c-0.188 0-0.313 0.188-0.5 0.188s-0.313 0-0.313-0.188l-10.063-4.75c-0.375-0.188-0.813-0.313-0.813-0.688v-7.813c0-0.188 0.313-0.188 0.313-0.313 0-0.313 0.313-0.625 0.625-0.813l9.75-4.813c0.313-0.125 0.688-0.125 0.813 0l9.75 4.813c0.313 0.188 0.813 0.5 0.813 0.813 0 0.125 0.313 0.125 0.313 0.313zM6.375 17.125v4.5l8 4.625v-4.625zM25.625 17.125l-8 4.5v4.625l8-4.813z"></path>
</symbol>
<symbol id="icon-cached-repo" viewBox="0 0 32 32">
<title>cached-repo</title>
<path d="M16 21.25c-0.188 0-0.313 0-0.313 0l-12-5.438c-0.313-0.125-0.625-0.438-0.625-0.75s0.313-0.688 0.625-0.813l12-5.625c0.125-0.125 0.5-0.125 0.813 0l12 5.438c0.313 0.188 0.438 0.5 0.438 0.813s-0.125 0.625-0.438 0.813l-12 5.563c-0.313 0-0.5 0-0.5 0zM6.063 15.063l9.938 4.438 9.938-4.625-9.938-4.5zM16 31.5c-0.188 0-0.313 0-0.313-0.125l-12-6.25c-0.313-0.188-0.5-0.313-0.5-0.625v-9.625h1.625v9.125l11.188 5.938 11.188-6.25v-8.813h1.625v9.125c0 0.313-0.188 0.5-0.5 0.625l-12 6.75c-0.125 0.125-0.313 0.125-0.313 0.125zM15.188 20.5h1.625v10.688h-1.625zM23.5 5.25c-0.125 0-0.438-0.125-0.625-0.313-1.75-1.75-4.313-2.688-6.875-2.688-2.75 0-5.125 0.938-7.063 2.875-0.313 0.313-0.938 0.313-1.25 0s-0.313-0.938 0-1.313c2.25-2.188 5.25-3.313 8.313-3.313s5.938 1.25 8.188 3.313c0.313 0.375 0.313 1 0 1.313-0.188 0.125-0.5 0.125-0.688 0.125zM21.625 8.5c-0.188 0-0.375 0-0.5-0.188-3.875-2.875-6.75-2.875-10.25 0-0.5 0.313-0.938 0.313-1.25-0.125-0.375-0.375-0.188-1 0.125-1.313 4.313-3.5 8-3.5 12.5 0 0.313 0.313 0.5 0.813 0.125 1.313-0.313 0.125-0.438 0.313-0.75 0.313z"></path>
</symbol>
<symbol id="icon-distribution-repo" viewBox="0 0 32 32">
<title>distribution-repo</title>
<path d="M28.4 17.5l-1.3 1.4 1.5 0.8q1.7 1.5 1.2 3.8t-2.7 3q-0.5 0.2-2 0.2h-18.3q-2.1 0-3.3-0.8-1.3-1.1-1.5-2.6-0.2-1.9 0.8-3.1 1.2-1.4 2.9-1.4 1.8 0 2 0.1l0.5-1.5 0.7-1.3q1-1.1 2.6-1.3v-2.1q-1 0-1.9 0.4-1.2 0.8-1.4 0.9-0.6 0.4-1.2 1.2-0.6 0.9-0.7 1.5-3.2 0-5.1 2.3-1.2 1.4-1.2 3.2 0 2 0.5 3.2l1.2 1.6 0.4 0.3q1.8 1.4 3.4 1.4h21q0.9 0 2.1-0.6 0.3-0.1 1.2-0.8l0.7-0.7 0.6-0.8q0.9-1.7 0.9-3.6 0-2.5-2.4-4.2-0.5 0-1.2-0.5zM25.7 7.1l-3.6-3.6-3.6 3.6 1.1 1.2 1.7-1.7v11.5l-5.3-5.4h2.3v-1.6h-5.1v5.1h1.6v-2.4l7.3 7.3 7.3-7.3v2.4h1.6v-5.1h-5.1v1.6h2.4l-5.4 5.4v-11.5l1.7 1.7 1.1-1.2z"></path>
</symbol>
<symbol id="icon-local-repo" viewBox="0 0 32 32">
<title>local-repo</title>
<path d="M16 17.813c-0.188 0-0.375 0-0.375 0l-15-7c-0.438-0.188-0.813-0.625-0.813-1 0-0.438 0.375-0.813 0.813-1l15-7c0.188-0.188 0.563-0.188 1 0l15 6.813c0.375 0.188 0.563 0.563 0.563 1 0 0.375-0.188 0.75-0.563 1l-15.25 7c-0.188 0-0.375 0.188-0.375 0.188zM3.625 9.813l12.375 5.563 12.375-5.75-12.375-5.625zM16 30.375c-0.188 0-0.375 0-0.375-0.188l-15-7.813c-0.438 0-0.625-0.375-0.625-0.75v-11.813h2v11.188l14 7.375 14-7.75v-11h2v11.375c0 0.375-0.188 0.625-0.625 0.813l-15 8.375c-0.188 0.188-0.375 0.188-0.375 0.188zM15 16.625h2v13.375h-2z"></path>
</symbol>
</defs>
</svg>
