<?xml version="1.0" encoding="utf-8"?>
<!-- Generator: Adobe Illustrator 17.0.0, SVG Export Plug-In . SVG Version: 6.00 Build 0)  -->
<!DOCTYPE svg PUBLIC "-//W3C//DTD SVG 1.1//EN" "http://www.w3.org/Graphics/SVG/1.1/DTD/svg11.dtd">
<svg version="1.1" xmlns="http://www.w3.org/2000/svg" xmlns:xlink="http://www.w3.org/1999/xlink" x="0px" y="0px"
	 width="204.694397px" height="36.096386px" viewBox="0 0 204.694397 36.096386"
	 style="enable-background:new 0 0 204.694397 36.096386;" xml:space="preserve">
<style type="text/css">
	.st0{fill:#F7F7F7;}
	.st1{fill:#373737;}
	.st2{fill:#50AC59;}
	.st3{fill:#2C2C2C;}
	.st4{fill:#6B6B6B;}
	.st5{fill:none;stroke:#2C2C2C;stroke-miterlimit:10;}
	.st6{opacity:0.5;fill:#373737;stroke:#413E3E;stroke-miterlimit:10;}
	.st7{fill:#EAEAEA;}
	.st8{fill:none;stroke:#6EBA75;stroke-miterlimit:10;}
	.st9{fill:none;stroke:#4DA454;stroke-miterlimit:10;}
	.st10{fill:none;stroke:#F7931E;stroke-miterlimit:10;}
	.st11{filter:url(#Adobe_OpacityMaskFilter);}
	.st12{mask:url(#SVGID_1_);}
	.st13{opacity:0.399994;clip-path:url(#SVGID_5_);fill:#FFFFFF;}
	.st14{filter:url(#Adobe_OpacityMaskFilter_1_);}
	.st15{mask:url(#SVGID_6_);}
	.st16{opacity:0.399994;clip-path:url(#SVGID_10_);fill:#FFFFFF;}
	.st17{filter:url(#Adobe_OpacityMaskFilter_2_);}
	.st18{mask:url(#SVGID_11_);}
	.st19{opacity:0.399994;clip-path:url(#SVGID_15_);fill:#FFFFFF;}
	.st20{filter:url(#Adobe_OpacityMaskFilter_3_);}
	.st21{mask:url(#SVGID_16_);}
	.st22{opacity:0.399994;clip-path:url(#SVGID_20_);fill:#FFFFFF;}
	.st23{filter:url(#Adobe_OpacityMaskFilter_4_);}
	.st24{mask:url(#SVGID_21_);}
	.st25{opacity:0.399994;clip-path:url(#SVGID_25_);fill:#FFFFFF;}
	.st26{filter:url(#Adobe_OpacityMaskFilter_5_);}
	.st27{mask:url(#SVGID_26_);}
	.st28{opacity:0.399994;clip-path:url(#SVGID_30_);fill:#FFFFFF;}
	.st29{filter:url(#Adobe_OpacityMaskFilter_6_);}
	.st30{mask:url(#SVGID_31_);}
	.st31{opacity:0.399994;clip-path:url(#SVGID_35_);fill:#FFFFFF;}
	.st32{filter:url(#Adobe_OpacityMaskFilter_7_);}
	.st33{mask:url(#SVGID_36_);}
	.st34{opacity:0.399994;clip-path:url(#SVGID_40_);fill:#FFFFFF;}
	.st35{filter:url(#Adobe_OpacityMaskFilter_8_);}
	.st36{mask:url(#SVGID_41_);}
	.st37{opacity:0.399994;clip-path:url(#SVGID_45_);fill:#FFFFFF;}
	.st38{filter:url(#Adobe_OpacityMaskFilter_9_);}
	.st39{mask:url(#SVGID_46_);}
	.st40{opacity:0.399994;clip-path:url(#SVGID_50_);fill:#FFFFFF;}
	.st41{filter:url(#Adobe_OpacityMaskFilter_10_);}
	.st42{mask:url(#SVGID_51_);}
	.st43{opacity:0.399994;clip-path:url(#SVGID_55_);fill:#FFFFFF;}
	.st44{filter:url(#Adobe_OpacityMaskFilter_11_);}
	.st45{mask:url(#SVGID_56_);}
	.st46{opacity:0.399994;clip-path:url(#SVGID_60_);fill:#FFFFFF;}
	.st47{filter:url(#Adobe_OpacityMaskFilter_12_);}
	.st48{mask:url(#SVGID_61_);}
	.st49{opacity:0.399994;clip-path:url(#SVGID_65_);fill:#FFFFFF;}
	.st50{filter:url(#Adobe_OpacityMaskFilter_13_);}
	.st51{mask:url(#SVGID_66_);}
	.st52{opacity:0.399994;clip-path:url(#SVGID_70_);fill:#FFFFFF;}
	.st53{filter:url(#Adobe_OpacityMaskFilter_14_);}
	.st54{mask:url(#SVGID_71_);}
	.st55{opacity:0.399994;clip-path:url(#SVGID_75_);fill:#FFFFFF;}
	.st56{filter:url(#Adobe_OpacityMaskFilter_15_);}
	.st57{mask:url(#SVGID_76_);}
	.st58{opacity:0.399994;clip-path:url(#SVGID_80_);fill:#FFFFFF;}
	.st59{filter:url(#Adobe_OpacityMaskFilter_16_);}
	.st60{mask:url(#SVGID_81_);}
	.st61{opacity:0.399994;clip-path:url(#SVGID_85_);fill:#FFFFFF;}
	.st62{filter:url(#Adobe_OpacityMaskFilter_17_);}
	.st63{mask:url(#SVGID_86_);}
	.st64{opacity:0.399994;clip-path:url(#SVGID_90_);fill:#FFFFFF;}
	.st65{filter:url(#Adobe_OpacityMaskFilter_18_);}
	.st66{mask:url(#SVGID_91_);}
	.st67{opacity:0.399994;clip-path:url(#SVGID_95_);fill:#FFFFFF;}
	.st68{filter:url(#Adobe_OpacityMaskFilter_19_);}
	.st69{mask:url(#SVGID_96_);}
	.st70{opacity:0.399994;clip-path:url(#SVGID_100_);fill:#FFFFFF;}
	.st71{filter:url(#Adobe_OpacityMaskFilter_20_);}
	.st72{mask:url(#SVGID_101_);}
	.st73{opacity:0.399994;clip-path:url(#SVGID_105_);fill:#FFFFFF;}
	.st74{filter:url(#Adobe_OpacityMaskFilter_21_);}
	.st75{mask:url(#SVGID_106_);}
	.st76{opacity:0.399994;clip-path:url(#SVGID_110_);fill:#FFFFFF;}
	.st77{filter:url(#Adobe_OpacityMaskFilter_22_);}
	.st78{mask:url(#SVGID_111_);}
	.st79{opacity:0.399994;clip-path:url(#SVGID_115_);fill:#FFFFFF;}
	.st80{filter:url(#Adobe_OpacityMaskFilter_23_);}
	.st81{mask:url(#SVGID_116_);}
	.st82{opacity:0.399994;clip-path:url(#SVGID_120_);fill:#FFFFFF;}
	.st83{filter:url(#Adobe_OpacityMaskFilter_24_);}
	.st84{mask:url(#SVGID_121_);}
	.st85{opacity:0.399994;clip-path:url(#SVGID_125_);fill:#FFFFFF;}
	.st86{filter:url(#Adobe_OpacityMaskFilter_25_);}
	.st87{mask:url(#SVGID_126_);}
	.st88{opacity:0.399994;clip-path:url(#SVGID_130_);fill:#FFFFFF;}
	.st89{filter:url(#Adobe_OpacityMaskFilter_26_);}
	.st90{mask:url(#SVGID_131_);}
	.st91{opacity:0.399994;clip-path:url(#SVGID_135_);fill:#FFFFFF;}
	.st92{filter:url(#Adobe_OpacityMaskFilter_27_);}
	.st93{mask:url(#SVGID_136_);}
	.st94{opacity:0.399994;clip-path:url(#SVGID_140_);fill:#FFFFFF;}
	.st95{filter:url(#Adobe_OpacityMaskFilter_28_);}
	.st96{mask:url(#SVGID_141_);}
	.st97{opacity:0.399994;clip-path:url(#SVGID_145_);fill:#FFFFFF;}
	.st98{filter:url(#Adobe_OpacityMaskFilter_29_);}
	.st99{mask:url(#SVGID_146_);}
	.st100{opacity:0.399994;clip-path:url(#SVGID_150_);fill:#FFFFFF;}
	.st101{filter:url(#Adobe_OpacityMaskFilter_30_);}
	.st102{mask:url(#SVGID_151_);}
	.st103{opacity:0.399994;clip-path:url(#SVGID_155_);fill:#FFFFFF;}
	.st104{filter:url(#Adobe_OpacityMaskFilter_31_);}
	.st105{mask:url(#SVGID_156_);}
	.st106{opacity:0.399994;clip-path:url(#SVGID_160_);fill:#FFFFFF;}
	.st107{filter:url(#Adobe_OpacityMaskFilter_32_);}
	.st108{mask:url(#SVGID_161_);}
	.st109{opacity:0.399994;clip-path:url(#SVGID_165_);fill:#FFFFFF;}
	.st110{filter:url(#Adobe_OpacityMaskFilter_33_);}
	.st111{mask:url(#SVGID_166_);}
	.st112{opacity:0.399994;clip-path:url(#SVGID_170_);fill:#FFFFFF;}
	.st113{filter:url(#Adobe_OpacityMaskFilter_34_);}
	.st114{mask:url(#SVGID_171_);}
	.st115{opacity:0.399994;clip-path:url(#SVGID_175_);fill:#FFFFFF;}
	.st116{filter:url(#Adobe_OpacityMaskFilter_35_);}
	.st117{mask:url(#SVGID_176_);}
	.st118{opacity:0.399994;clip-path:url(#SVGID_180_);fill:#FFFFFF;}
	.st119{filter:url(#Adobe_OpacityMaskFilter_36_);}
	.st120{mask:url(#SVGID_181_);}
	.st121{opacity:0.399994;clip-path:url(#SVGID_185_);fill:#FFFFFF;}
	.st122{filter:url(#Adobe_OpacityMaskFilter_37_);}
	.st123{mask:url(#SVGID_186_);}
	.st124{opacity:0.399994;clip-path:url(#SVGID_190_);fill:#FFFFFF;}
	.st125{filter:url(#Adobe_OpacityMaskFilter_38_);}
	.st126{mask:url(#SVGID_191_);}
	.st127{opacity:0.399994;clip-path:url(#SVGID_195_);fill:#FFFFFF;}
	.st128{fill:#FFFFFF;stroke:#D3D3D3;stroke-miterlimit:10;}
	.st129{fill:#545454;}
	.st130{fill:#363636;}
	.st131{fill:#FFFFFF;}
	.st132{fill:#F15A24;}
	.st133{fill:#662D91;}
	.st134{fill:#4D3380;}
	.st135{fill:#00A99D;stroke:#F1F1F1;stroke-width:2;stroke-miterlimit:10;}
	.st136{fill:#22B573;stroke:#F1F1F1;stroke-width:2;stroke-miterlimit:10;}
	.st137{fill:#373737;stroke:#F1F1F1;stroke-width:2;stroke-miterlimit:10;}
	.st138{fill:#8CC63F;}
	.st139{fill:#736558;}
	.st140{fill:#534741;}
	.st141{fill:#39B54A;}
	.st142{fill:#C7B299;}
	.st143{fill:none;stroke:#F1F1F1;stroke-miterlimit:10;}
	.st144{fill:#006CAB;}
	.st145{fill:#006CAB;stroke:#006CAB;stroke-width:0.5;stroke-miterlimit:10;}
	.st146{fill:#006CAB;stroke:#006CAB;stroke-linecap:round;stroke-miterlimit:10;}
	.st147{fill:none;stroke:#006CAB;stroke-miterlimit:10;}
	.st148{fill:none;stroke:#F2F2F2;stroke-miterlimit:10;}
	.st149{fill:#FFFFFF;stroke:#50AC59;stroke-miterlimit:10;}
	.st150{fill:none;stroke:#707070;stroke-miterlimit:10;}
	.st151{fill:#707070;}
	.st152{fill:none;stroke:#50AC59;stroke-miterlimit:10;}
	.st153{fill:#E5F4FB;}
</style>
<g id="Layer_1">
</g>
<g id="main">
</g>
<g id="Layer_4">
</g>
<g id="notifications">
</g>
<g id="grid">
	<g>
		<g>
			<g>
				<path class="st131" d="M50.128315,7.2315969h3.5186729v13.8777094c0,2.2298431-0.0742912,2.676712-0.2476387,3.3700905
					c-0.4952698,2.1060257-2.452713,3.4443817-4.0139427,4.0398331l-1.6107559-1.7852249
					c0.8914871-0.5447979,1.6850471-1.3867588,2.0069733-2.0812626c0.2723999-0.6190891,0.3466911-1.3135929,0.3466911-3.1719837
					V7.2315969z"/>
				<path class="st131" d="M55.4580994,7.2811236h9.3426056l-0.3962173,2.8005309h-5.4772415v3.9396524h4.3865242v2.8252945
					h-4.3865242v7.6080322h-3.4691467V7.2811236z"/>
				<path class="st131" d="M64.0093994,12.2619705l2.973877-0.7924328c0.2971573,0.5200338,0.4705048,1.0907211,0.5200348,1.8088636
					c0.4705048-0.6438522,1.264061-1.3135929,1.8831482-1.610755c0.2723999-0.1238184,0.7192688-0.1981087,1.0907211-0.1981087
					c0.4952698,0,0.7181473,0.0495272,1.2393036,0.2723989l-0.9173737,2.9243479
					c-0.3219299-0.1733446-0.5943298-0.2476349-0.9669037-0.2476349c-0.7429047,0-1.4115219,0.3466892-2.0317383,1.0648317
					v8.9711523h-3.3205643v-8.4747562C64.4799042,14.2700682,64.2817993,12.9812384,64.0093994,12.2619705z"/>
				<path class="st131" d="M76.8976898,11.5190649c1.8088684,0,3.2215118,0.6190882,4.312233,1.907917
					c1.0153046,1.1897755,1.4621735,2.5776587,1.4621735,4.6341581c0,2.1803169-0.4963989,3.6672535-1.5859909,4.9065552
					c-0.9669037,1.0907211-2.2309723,1.7593365-4.1884155,1.7593365c-3.4443817,0-5.7001114-2.5765324-5.7001114-6.5668373
					C71.1975784,14.1710138,73.4780731,11.5190649,76.8976898,11.5190649z M76.9472198,13.9717798
					c-0.7924347,0-1.4374084,0.4963961-1.7098083,1.2888298c-0.2228775,0.6697407-0.3466949,1.5612288-0.3466949,2.8252935
					c0,1.4621735,0.1485825,2.5528946,0.4209824,3.1967468c0.2971649,0.6933784,1.0411987,1.0411949,1.6850433,1.0411949
					c1.4374161,0,2.0565033-1.2888298,2.0565033-4.287468c0-1.7098103-0.2228699-2.8252945-0.6686172-3.3948555
					C78.062706,14.220541,77.5415421,13.9717798,76.9472198,13.9717798z"/>
				<path class="st131" d="M95.2125778,11.0485573l1.3878784,2.1060266
					c-0.7181396,0.6686153-1.4126434,0.9410133-2.3288956,0.9410133c-0.3230515,0-0.4468689-0.0247631-0.8678513-0.0742903
					c0.4952698,0.5954504,0.7429047,1.2393026,0.7429047,2.0823879c0,2.1803169-1.9822083,3.7663078-4.6836777,3.7663078
					c-0.1485825,0-0.2476349,0-0.4952774-0.0247631c-0.8419571,0.3962173-1.313591,0.6945038-1.313591,1.0411949
					c0,0.1733437,0.1981125,0.2971611,0.5459213,0.2971611l1.7841034,0.0247631
					c1.9326782,0.024765,2.9491119,0.3219261,3.8405991,1.1402493c0.7440338,0.6933784,1.0907211,1.5612278,1.0907211,2.7003498
					c0,1.065958-0.3219223,1.8842812-1.0164337,2.6271858c-1.114357,1.1897755-3.0233994,1.635519-5.0056076,1.635519
					c-1.8088608,0-3.6672516-0.297163-4.8075027-1.3631191c-0.6933746-0.6438522-1.0411911-1.3878841-1.0411911-2.2546082
					c0-0.6945038,0.174469-1.041193,0.2982864-1.2888279h3.0729294c-0.0990524,0.272398-0.149704,0.3714523-0.149704,0.8171959
					c0,1.0164299,0.8430862,1.5612278,2.3795471,1.5612278c0.9421387,0,1.6602859-0.1238174,2.1060257-0.4209805
					c0.4716339-0.2971611,0.7935562-0.7924328,0.7935562-1.2888279c0-0.4952717-0.2476349-0.9410152-0.5954514-1.1391239
					c-0.3466873-0.1733437-0.8171921-0.3230515-1.7345657-0.3725777c-0.1733475,0-0.6438522-0.0247631-1.4126511-0.0247631
					c-1.4858093-0.024765-2.452713-0.1733456-3.0470428-0.3962173c-0.2982864-0.1238174-0.5459213-0.3466892-0.7192612-0.6190891
					c-0.1485825-0.2971611-0.2476425-0.6449776-0.2476425-1.041193c0-0.4705067,0.1238174-0.866724,0.3962173-1.1650124
					c0.3714523-0.4209805,1.1897812-0.7924328,1.9326859-0.9657764c-1.8336258-0.4716339-2.7251129-1.635519-2.7251129-3.5186739
					c0-2.6024218,2.1060257-4.287468,5.3522949-4.287468c0.7181473,0,1.363121,0.0742912,2.2793732,0.3219261
					c0.9173737,0.2228718,1.1402435,0.2723989,1.5612259,0.2723989
					C93.5027695,12.1381531,94.4449081,11.7419367,95.2125778,11.0485573z M88.7200241,13.9717798
					c-1.264061,0-1.9822083,0.6945047-1.9822083,1.8842802c0,1.2877026,0.7924347,1.8088627,1.9574509,1.8088627
					c1.313591,0,2.0317307-0.6449776,2.0317307-1.8088627C90.7269974,14.6662846,89.9840927,13.9717798,88.7200241,13.9717798z"/>
				<path class="st131" d="M104.8309555,7.1820698h3.7426682l5.42659,17.2725639h-3.716774l-1.2145386-4.0893593h-5.0551376
					l-1.2145386,4.0893593h-3.6177292L104.8309555,7.1820698z M104.8557205,17.4915791h3.3700943
					c0,0-0.5695648-1.8099899-0.9410172-3.4702721c-0.1733475-0.7924328-0.6945038-3.0481653-0.6945038-3.0481653
					s-0.4952698,2.0328608-0.8171997,3.3216896C105.4511719,15.5330086,105.228302,16.3513298,104.8557205,17.4915791z"/>
				<path class="st131" d="M113.879776,12.2619705l2.973877-0.7924328c0.2971573,0.5200338,0.4705048,1.0907211,0.5200348,1.8088636
					c0.4705048-0.6438522,1.264061-1.3135929,1.8831482-1.610755c0.2723999-0.1238184,0.7192688-0.1981087,1.0907211-0.1981087
					c0.4952774,0,0.7181473,0.0495272,1.2393036,0.2723989l-0.9173737,2.9243479
					c-0.3219299-0.1733446-0.5943222-0.2476349-0.9669037-0.2476349c-0.7429047,0-1.4115219,0.3466892-2.0317383,1.0648317
					v8.9711523h-3.3205643v-8.4747562C114.3502808,14.2700682,114.1521759,12.9812384,113.879776,12.2619705z"/>
				<path class="st131" d="M129.5179443,11.7419367l-0.8430786,2.20508h-2.1307907v6.4677839
					c0,1.6107559,0.2971573,2.0328617,1.4374084,2.0328617c0.2971573,0,0.5943222-0.0742912,1.1897812-0.2476349
					l0.4209747,1.9822063c-0.9669037,0.3962173-1.8336258,0.5695629-2.7014771,0.5695629
					c-1.6850433,0-3.0481644-0.7429066-3.4196167-1.8583908c-0.1981125-0.5447979-0.2228775-0.7924328-0.2228775-1.9574451
					v-6.9889441h-1.264061v-2.1555529h1.264061c0-1.2393026,0-2.0812626,0.1238174-3.0234022l3.3700943-0.8419604
					c-0.1238174,1.1638865-0.1981049,2.5270057-0.1981049,3.8158355H129.5179443z"/>
				<path class="st131" d="M132.2453156,6.2162919c1.1154785,0,2.0069733,0.9162507,2.0069733,2.056499
					s-0.9162598,2.0564985-2.0565033,2.0564985c-1.1154785,0-2.0317383-0.9162502-2.0317383-2.0564985
					S131.1050568,6.2162919,132.2453156,6.2162919z M130.5355072,11.9895716l3.3205566-0.5200338v12.985096h-3.3205566V11.9895716z"
					/>
				<path class="st131" d="M142.4816589,8.9414063c-0.7192688-0.3466892-0.9669037-0.4209805-1.3631287-0.4209805
					c-0.8430786,0-1.3878784,0.5200348-1.3878784,1.4374104v1.7841005h3.2215118l-0.8419647,2.3288975h-2.3547821v10.3837996
					H136.50914V14.0708342h-1.1402435v-2.3288975h1.2145386c-0.074295-0.5200348-0.1238251-1.1402483-0.1238251-1.7098093
					c0-2.5033684,1.4869385-3.9407787,4.0893707-3.9407787c1.0895844,0,1.9822083,0.2239976,2.9986267,0.7935586
					L142.4816589,8.9414063z"/>
				<path class="st131" d="M142.929657,13.2784014c0.8171844-0.5200348,1.1638794-0.6933794,2.056488-1.041194
					c1.2393036-0.5200348,2.3041382-0.7429066,3.4691467-0.7429066c2.1319122,0,3.5929718,0.7924337,4.0893707,2.20508
					c0.1733398,0.5211601,0.2228699,0.9173765,0.2228699,2.2804966l-0.074295,4.2615795c0,0.0742893,0,0.1485806,0,0.2228718
					c0,1.3631191,0.2228699,1.8842793,1.1897736,2.6024208l-1.7604675,2.0317364
					c-0.7676697-0.3219261-1.4610443-0.8914871-1.7840881-1.5364647c-0.47052,0.4468689-0.5200348,0.4963951-0.7676697,0.6697407
					c-0.620224,0.4457436-1.5117035,0.6933784-2.5529022,0.6933784c-2.8252869,0-4.3617554-1.4374104-4.3617554-3.9644165
					c0-2.973875,2.0576172-4.3617573,6.0963287-4.3617573c0.2476349,0,0.3973389,0,0.7440338,0.0247631v-0.5200348
					c0-1.4126472-0.2723999-1.8831539-1.4869385-1.8831539c-1.0659637,0-2.3052521,0.5200338-3.6672516,1.436285
					L142.929657,13.2784014z M149.4469604,18.9042263h-0.1485748c-2.3052673,0-3.097702,0.4209785-3.097702,1.9326801
					c0,0.9905415,0.6190948,1.6602821,1.4621735,1.6602821c0.6190948,0,1.2381897-0.3219261,1.7345734-0.8678493
					L149.4469604,18.9042263z"/>
				<path class="st131" d="M163.5745544,12.8574209l-1.6118774,2.1803169
					c-0.6686096-0.6190882-1.3867645-0.9916668-2.0069733-0.9916668c-1.4869385,0-2.1555481,1.2888288-2.1555481,4.2627039
					c0,1.6602821,0.1981049,2.6519489,0.6438446,3.1967468c0.3466949,0.4457436,0.9173737,0.7192688,1.4869385,0.7192688
					c0.7687988,0,1.4621735-0.3230515,2.2805023-1.0411949l0.1981049-0.1733437l1.5117035,2.0069714
					c-0.4963989,0.4952698-0.7192688,0.6697407-1.1650085,0.9421387c-0.8926239,0.5200348-1.8831635,0.7924347-3.097702,0.7924347
					c-3.4939117,0-5.5256348-2.4279518-5.5256348-6.5420761c0-2.9243479,1.1143494-4.857029,2.6012878-5.8734589
					c0.8430939-0.569562,2.0823975-0.9410143,3.1472168-0.9410143c0.8430939,0,1.7345734,0.2228718,2.4538422,0.569561
					C162.8057556,12.2124434,163.0286407,12.385788,163.5745544,12.8574209z"/>
				<path class="st131" d="M171.8286896,11.7419367l-0.8430786,2.20508h-2.1307983v6.4677839
					c0,1.6107559,0.2971649,2.0328617,1.4374237,2.0328617c0.2971497,0,0.5943146-0.0742912,1.1897736-0.2476349
					l0.4209747,1.9822063c-0.9669037,0.3962173-1.8336334,0.5695629-2.7014771,0.5695629
					c-1.6850433,0-3.048172-0.7429066-3.4196167-1.8583908c-0.1981049-0.5447979-0.2228699-0.7924328-0.2228699-1.9574451
					v-6.9889441h-1.2640686v-2.1555529h1.2640686c0-1.2393026,0-2.0812626,0.1238098-3.0234022l3.3701019-0.8419604
					c-0.1238251,1.1638865-0.1981201,2.5270057-0.1981201,3.8158355H171.8286896z"/>
				<path class="st131" d="M177.8023376,11.5190649c1.8088531,0,3.2215118,0.6190882,4.3122253,1.907917
					c1.0153046,1.1897755,1.4621735,2.5776587,1.4621735,4.6341581c0,2.1803169-0.4963989,3.6672535-1.5859833,4.9065552
					c-0.9669037,1.0907211-2.2309723,1.7593365-4.1884155,1.7593365c-3.4443817,0-5.700119-2.5765324-5.700119-6.5668373
					C172.1022186,14.1710138,174.3827209,11.5190649,177.8023376,11.5190649z M177.8518524,13.9717798
					c-0.7924194,0-1.4374084,0.4963961-1.7098083,1.2888298c-0.2228699,0.6697407-0.3466797,1.5612288-0.3466797,2.8252935
					c0,1.4621735,0.1485748,2.5528946,0.4209747,3.1967468c0.2971649,0.6933784,1.0411987,1.0411949,1.6850433,1.0411949
					c1.4374084,0,2.0565033-1.2888298,2.0565033-4.287468c0-1.7098103-0.2228699-2.8252945-0.6686096-3.3948555
					C178.9673462,14.220541,178.4461823,13.9717798,177.8518524,13.9717798z"/>
				<path class="st131" d="M184.4952393,12.2619705l2.973877-0.7924328
					c0.2971649,0.5200338,0.4705048,1.0907211,0.5200348,1.8088636c0.4705048-0.6438522,1.2640686-1.3135929,1.8831482-1.610755
					c0.2723999-0.1238184,0.7192688-0.1981087,1.0907288-0.1981087c0.4952698,0,0.7181396,0.0495272,1.2393036,0.2723989
					l-0.9173737,2.9243479c-0.3219299-0.1733446-0.5943298-0.2476349-0.9669037-0.2476349
					c-0.7429199,0-1.4115295,0.3466892-2.0317383,1.0648317v8.9711523h-3.3205719v-8.4747562
					C184.965744,14.2700682,184.7676392,12.9812384,184.4952393,12.2619705z"/>
				<path class="st131" d="M192.1302948,11.9895716l3.3948517-0.3962164l2.2062073,7.3851604
					c0.2228699,0.7676697,0.6686096,2.6260605,0.6686096,2.6260605s0.2476349-1.4126472,0.3962097-2.0317345
					c0.1981201-0.79356,0.2476501-0.9173775,0.4963989-1.7593365l1.9079285-6.0220413h3.4938965l-4.6093903,12.8612785
					c-0.8667145,2.4538403-1.5117035,3.5186729-2.427948,4.1884136c-0.8430939,0.6190872-1.9338074,1.0153046-3.072937,1.1638851
					l-1.1402435-2.180315c0.7181396-0.1981087,1.5612335-0.4952717,2.0565033-0.8419609
					c0.3714447-0.2735252,0.6697388-0.6202145,0.9421387-1.0411949c0.3219299-0.5200329,0.4209747-0.74403,0.7181396-1.4869366
					h-0.8419647c-0.1981049-0.5943241-0.2982788-0.8430862-0.5211487-1.4869385
					c-0.2476349-0.7676678-0.6438599-2.0317345-0.6686249-2.0812607L192.1302948,11.9895716z"/>
			</g>
		</g>
		<g>
			<path class="st131" d="M13.9886475,27.9772968C6.2751646,27.9772968,0,21.7021332,0,13.9886503
				S6.2751646,0.0000028,13.9886475,0.0000028s13.9886475,6.2751646,13.9886475,13.9886475
				S21.7021294,27.9772968,13.9886475,27.9772968z M13.9886475,2.480721c-6.3457656,0-11.5079288,5.1621637-11.5079288,11.5079288
				s5.1621637,11.5079298,11.5079288,11.5079298s11.5079288-5.1621647,11.5079288-11.5079298
				S20.3344135,2.480721,13.9886475,2.480721z"/>
			<rect x="0.1894346" y="33.6157303" class="st131" width="27.8174973" height="2.4807181"/>
		</g>
	</g>
</g>
</svg>
